<svg height="16" viewBox="0 0 16 16" width="16" xmlns="http://www.w3.org/2000/svg" xmlns:xlink="http://www.w3.org/1999/xlink"><linearGradient id="a" gradientUnits="userSpaceOnUse" x1="198" x2="183" y1="365" y2="12.9"><stop offset="0" stop-color="#197cf1"/><stop offset="1" stop-color="#20bcfa"/></linearGradient><g transform="matrix(.326 0 0 .326 -125 -163)"><ellipse cx="409" cy="525" fill="#fff" fill-rule="evenodd" rx="11.6" ry="17.2"/><g fill="url(#a)" transform="matrix(.128 0 0 .128 386 501)"><path d="m180 0c-66.3 0-120 53.7-120 120v120c0 66.3 53.7 120 120 120s120-53.7 120-120v-120c0-66.3-53.7-120-120-120m69.4 224c2.7 2.17 4.28 5.45 4.28 8.92s-1.57 6.75-4.28 8.92l-71.6 57.4c-2.07 1.66-4.6 2.51-7.15 2.51-1.68 0-3.37-.371-4.94-1.12-3.96-1.9-6.48-5.91-6.48-10.3v-82l-34.2 27.6c-2.11 1.71-4.65 2.54-7.18 2.54-3.33 0-6.63-1.45-8.89-4.24-3.97-4.91-3.2-12.1 1.7-16.1l47.4-38.3-47.4-38.3c-4.91-3.97-5.67-11.2-1.7-16.1 3.97-4.91 11.2-5.67 16.1-1.7l34.2 27.6v-82c0-4.39 2.52-8.4 6.48-10.3s8.66-1.36 12.1 1.39l71.6 57.4c2.7 2.17 4.28 5.45 4.28 8.91s-1.57 6.75-4.28 8.92l-55 44.1 55 44.1z"/><path d="m224 127-42-33.6v67.3z"/><path d="m224 233-42-33.6v67.3z"/></g></g></svg>