<?xml version="1.0" encoding="UTF-8" standalone="no"?>
<!-- Created with Inkscape (http://www.inkscape.org/) -->

<svg
   id="svg1307"
   version="1.1"
   viewBox="0 0 400 220"
   height="220"
   width="400"
   xml:space="preserve"
   xmlns="http://www.w3.org/2000/svg"
   xmlns:svg="http://www.w3.org/2000/svg"
   xmlns:rdf="http://www.w3.org/1999/02/22-rdf-syntax-ns#"
   xmlns:cc="http://creativecommons.org/ns#"
   xmlns:dc="http://purl.org/dc/elements/1.1/"><defs
     id="defs1301"><rect
       x="292.74222"
       y="478.00418"
       width="108.28636"
       height="51.968037"
       id="rect5267" /></defs><metadata
     id="metadata1304"><rdf:RDF><cc:Work
         rdf:about=""><dc:format>image/svg+xml</dc:format><dc:type
           rdf:resource="http://purl.org/dc/dcmitype/StillImage" /></cc:Work></rdf:RDF></metadata><g
     id="layer1"
     transform="translate(-143.53807,-14.491743)"><rect
       style="display:inline;fill:#293251;fill-opacity:1;stroke:none;stroke-width:0;stroke-linecap:round;stroke-linejoin:round;stroke-miterlimit:0;stroke-dasharray:none"
       id="rect337"
       width="400"
       height="220"
       x="143.53807"
       y="14.491743" /><g
       id="g1687"
       transform="translate(0.67625766,-0.00193188)"><text
         xml:space="preserve"
         style="font-style:normal;font-weight:normal;font-size:7.14196px;line-height:1;font-family:sans-serif;fill:#9da9ce;fill-opacity:1;stroke:none;stroke-width:0.486951"
         x="184.93948"
         y="37.552696"
         id="text5273"
         transform="matrix(3.70761,0,0,3.70761,-349.748,6.19511)"><tspan
           style="font-style:normal;font-variant:normal;font-weight:normal;font-stretch:normal;font-size:7.14196px;font-family:'Roboto Condensed';-inkscape-font-specification:'Roboto Condensed, ';fill:#9da9ce;fill-opacity:1;stroke-width:1.80542"
           x="184.93948"
           y="37.552696"
           id="tspan5275">Godot Bluetooth</tspan><tspan
           style="font-style:normal;font-variant:normal;font-weight:normal;font-stretch:normal;font-size:7.14196px;font-family:'Roboto Condensed';-inkscape-font-specification:'Roboto Condensed, ';fill:#9da9ce;fill-opacity:1;stroke-width:1.80542"
           x="184.93948"
           y="44.943733"
           id="tspan5326">Module</tspan></text><text
         xml:space="preserve"
         id="text5265"
         style="font-style:normal;font-weight:normal;font-size:32px;line-height:1.25;font-family:sans-serif;white-space:pre;shape-inside:url(#rect5267);display:inline;fill:#000000;fill-opacity:1;stroke:none"
         transform="matrix(1.80542,0,0,1.80542,-192.719,-804.255)"><tspan
           x="292.74219"
           y="507.86193"
           id="tspan9439"><tspan
             style="font-family:'Lilita One';-inkscape-font-specification:'Lilita One';fill:#ffffff"
             id="tspan9437">GBM</tspan></tspan></text><g
         id="g1757"><path
           d="m 245.425,182.687 c -7.661,-0.36 -16.905,-1.691 -22.857,-3.286 -5.964,-1.596 -11.017,-3.825 -15.006,-6.585 -1.728,-1.21 -6.774,-6.136 -7.977,-7.725 -2.077,-2.855 -3.002,-5.223 -3.616,-9.244 l -0.397,-2.609 -0.002,-18.488 -0.002,-18.488 -1.545,-2.09 c -0.849,-1.152 -2.311,-3.241 -3.248,-4.653 -1.697,-2.546 -1.704,-2.565 -1.913,-3.983 -0.166,-1.127 -0.17,-1.697 -0.017,-2.748 0.171,-1.177 0.3,-1.494 1.127,-2.811 2.603,-4.1472 6.839,-9.3074 10.511,-12.9164 l 1.368,-1.336 1.367,-0.1975 c 1.058,-0.1526 1.665,-0.1552 2.672,-0.0119 1.45,0.2064 2.488,0.6711 6.085,2.7162 1.171,0.6648 2.077,1.2093 2.197,1.2093 0.114,0 2.469,-1.7981 2.469,-1.7981 0,0 2.4,-1.8172 2.394,-2.368 -0.007,-0.3141 -0.113,-2.2478 -0.235,-4.2929 -0.178,-2.9822 -0.183,-4.0205 -0.025,-5.2235 l 0.198,-1.5006 3.159,-3.0835 2.52,-1.0511 c 4.128,-1.7222 9.498,-3.324 12.98,-3.9002 1.285,-0.2083 1.779,-0.2185 3.033,-0.059 l 1.5,0.1905 1.438,1.4563 c 1.475,1.5006 2.456,3.0518 4.438,7.0281 l 0.697,1.4056 h 4.406 l 0.697,-1.4056 c 1.982,-3.9889 2.963,-5.5402 4.438,-7.0281 l 1.438,-1.4563 1.5,-0.1905 c 1.254,-0.159 1.754,-0.1495 3.046,0.0576 4.071,0.6521 11.65,3.0771 15.069,4.8057 0.421,0.214 1.399,1.0257 2.178,1.8045 l 1.412,1.4182 0.201,1.5006 c 0.16,1.2094 0.157,2.2161 -0.023,5.2236 -0.122,2.0451 -0.228,3.9762 -0.234,4.2928 -0.011,0.5509 0.072,0.6332 2.419,2.3934 l 2.431,1.8235 0.57,-0.3191 c 0.315,-0.1754 1.336,-0.7535 2.279,-1.2854 3.084,-1.7475 4.021,-2.159 5.433,-2.3616 1.013,-0.1457 1.621,-0.1444 2.672,0.0058 l 1.367,0.1944 1.368,1.3359 c 3.698,3.6154 7.725,8.611 10.51,12.9165 0.836,1.3168 0.957,1.6208 1.134,2.8108 0.154,1.064 0.151,1.628 -0.016,2.761 -0.209,1.418 -0.218,1.431 -1.912,3.983 -0.937,1.405 -2.4,3.501 -3.248,4.653 l -1.545,2.09 -10e-4,18.425 -10e-4,18.425 -0.393,2.672 c -0.816,5.559 -2.152,8.104 -6.648,12.663 -2.754,2.779 -4.565,4.28 -6.901,5.711 -5.895,3.609 -13.297,5.92 -23.807,7.408 -8.421,1.19 -15.449,1.551 -23.237,1.184 z"
           fill="none"
           stroke="#ffffff"
           stroke-linecap="round"
           stroke-linejoin="round"
           stroke-width="20"
           id="path1743"
           style="stroke-width:13;stroke-dasharray:none" /><path
           d="m 245.425,182.687 c -7.661,-0.36 -16.905,-1.691 -22.857,-3.286 -5.964,-1.596 -11.017,-3.825 -15.006,-6.585 -1.728,-1.21 -6.774,-6.136 -7.977,-7.725 -2.077,-2.855 -3.002,-5.223 -3.616,-9.244 l -0.397,-2.609 -0.002,-18.488 -0.002,-18.488 -1.545,-2.09 c -0.849,-1.152 -2.311,-3.241 -3.248,-4.653 -1.697,-2.546 -1.704,-2.565 -1.913,-3.983 -0.166,-1.127 -0.17,-1.697 -0.017,-2.748 0.171,-1.177 0.3,-1.494 1.127,-2.811 2.603,-4.1472 6.839,-9.3074 10.511,-12.9164 l 1.368,-1.336 1.367,-0.1975 c 1.058,-0.1526 1.665,-0.1552 2.672,-0.0119 1.45,0.2064 2.488,0.6711 6.085,2.7162 1.171,0.6648 2.153,1.2093 2.197,1.2093 0.038,0 1.152,-0.8104 2.469,-1.7981 2.318,-1.7349 2.4,-1.8172 2.394,-2.368 -0.007,-0.3141 -0.113,-2.2478 -0.235,-4.2929 -0.178,-2.9822 -0.183,-4.0205 -0.025,-5.2235 l 0.198,-1.5006 3.159,-3.0835 2.52,-1.0511 c 4.128,-1.7222 9.498,-3.324 12.98,-3.9002 1.285,-0.2083 1.779,-0.2185 3.033,-0.059 l 1.5,0.1905 1.438,1.4563 c 1.475,1.5006 2.456,3.0518 4.438,7.0281 l 0.697,1.4056 h 4.406 l 0.697,-1.4056 c 1.982,-3.9889 2.963,-5.5402 4.438,-7.0281 l 1.438,-1.4563 1.5,-0.1905 c 1.254,-0.159 1.754,-0.1495 3.046,0.0576 4.071,0.6521 11.65,3.0771 15.069,4.8057 0.421,0.214 1.399,1.0257 2.178,1.8045 l 1.412,1.4182 0.201,1.5006 c 0.16,1.2094 0.157,2.2161 -0.023,5.2236 -0.122,2.0451 -0.228,3.9762 -0.234,4.2928 -0.011,0.5509 0.072,0.6332 2.419,2.3934 l 2.431,1.8235 0.57,-0.3191 c 0.315,-0.1754 1.336,-0.7535 2.279,-1.2854 3.084,-1.7475 4.021,-2.159 5.433,-2.3616 1.013,-0.1457 1.621,-0.1444 2.672,0.0058 l 1.367,0.1944 1.368,1.3359 c 3.698,3.6154 7.725,8.611 10.51,12.9165 0.836,1.3168 0.957,1.6208 1.134,2.8108 0.154,1.064 0.151,1.628 -0.016,2.761 -0.209,1.418 -0.218,1.431 -1.912,3.983 -0.937,1.405 -2.4,3.501 -3.248,4.653 l -1.545,2.09 -10e-4,18.425 -10e-4,18.425 -0.393,2.672 c -0.816,5.559 -2.152,8.104 -6.648,12.663 -2.754,2.779 -4.565,4.28 -6.901,5.711 -5.895,3.609 -13.297,5.92 -23.807,7.408 -8.421,1.19 -15.449,1.551 -23.237,1.184 z"
           fill="#084877"
           id="path1745" /><path
           d="m 259.861,176.988 c 13.74,-1.12 24.25,-4.179 31.468,-9.181 2.008,-1.386 4.85,-4.21 6.047,-6.002 2.647,-3.964 3.248,-7.028 3.147,-16.146 -0.025,-2.342 -0.03,-10.383 -0.01,-17.918 l 0.038,-13.676 1.399,-1.849 c 0.773,-1.019 2.311,-3.204 3.419,-4.856 l 2.026,-3.014 -0.37,-0.604 c -2.178,-3.559 -4.755,-6.965 -8.167,-10.7639 l -1.609,-1.8045 -1.291,0.6395 c -1.564,0.7788 -5.578,3.0898 -7.408,4.2738 l -1.349,0.8674 -1,-0.8927 c -1.627,-1.4563 -5.249,-4.1219 -7.408,-5.4579 -1.114,-0.6838 -2.09,-1.3043 -2.159,-1.3676 -0.073,-0.0639 -0.021,-1.0827 0.114,-2.2667 0.287,-2.52 0.563,-6.3316 0.613,-8.4843 l 0.036,-1.526 -1.21,-0.5913 c -1.595,-0.7852 -4.166,-1.7855 -6.584,-2.5707 -2.033,-0.6648 -6.649,-1.8931 -7.092,-1.8994 -0.32,-0.0011 -2.153,3.2481 -4.286,7.5979 l -1.533,3.1278 -0.937,-0.1697 c -1.215,-0.2203 -8.611,-0.2203 -9.814,0 l -0.937,0.1697 -1.532,-3.1278 c -1.975,-4.0269 -3.97,-7.5979 -4.242,-7.5979 -0.481,0 -5.325,1.3106 -7.408,2.0007 -2.14,0.7092 -5.217,1.9438 -6.775,2.7036 l -0.722,0.3552 0.032,1.526 c 0.046,2.1274 0.32,5.9453 0.611,8.4843 0.135,1.184 0.186,2.2097 0.114,2.2794 -0.072,0.069 -1.02,0.6648 -2.109,1.3233 -2.469,1.5006 -6.129,4.2105 -7.788,5.7681 l -0.664,0.6274 -1.362,-0.8737 c -1.861,-1.1967 -5.869,-3.5014 -7.471,-4.2802 l -1.292,-0.6395 -1.709,1.9185 c -3.058,3.4317 -5.388,6.4582 -7.471,9.7502 l -0.944,1.482 2.026,3.014 c 1.115,1.659 2.66,3.849 3.426,4.863 l 1.399,1.848 0.002,9.181 0.002,9.181 c 0,0 -0.32,13.866 0.183,20.768 0.332,4.495 2.165,8.231 5.736,11.776 4.445,4.382 10.638,7.408 19.628,9.624 5.471,1.343 10.891,2.071 18.869,2.558 1.836,0.111 12.156,-0.05 14.309,-0.221 z"
           fill="#478cbf"
           id="path1747" /><g
           fill="#084877"
           id="g1755"><path
             d="m 290.253,117.978 c -0.216,-0.399 -0.715,-0.95 -1.095,-1.229 l -0.716,-0.499 -28.239,-0.165 18.805,-18.8052 -4.901,-4.9007 -22.35,22.3509 -22.351,-22.3509 -2.463,2.444 -2.444,2.463 18.869,18.8679 h -27.986 l -0.735,0.383 c -1.013,0.548 -1.677,1.532 -1.779,2.678 -0.149,1.76 -0.465,1.361 9.688,11.523 6.312,6.332 9.56,9.435 10.004,9.688 0.816,0.383 2.045,0.399 2.874,0.068 0.416,-0.184 3.09,-2.729 8.484,-8.105 l 7.852,-7.851 7.851,7.851 c 5.369,5.382 8.041,7.915 8.484,8.105 0.798,0.315 1.963,0.315 2.761,0 0.848,-0.366 19.058,-18.489 19.501,-19.438 0.431,-0.931 0.416,-2.179 -0.066,-3.09 z m -20.831,14.309 c -0.101,0 -2.229,-2.058 -4.736,-4.571 l -4.571,-4.572 h 18.615 l -4.572,4.572 c -2.507,2.507 -4.635,4.571 -4.736,4.571 z m -35.394,0 c -0.1,0 -2.228,-2.058 -4.736,-4.571 l -4.571,-4.572 h 18.615 l -4.571,4.572 c -2.508,2.507 -4.635,4.571 -4.737,4.571 z"
             id="path1749" /><path
             d="m 271.258,150.396 -2.463,-2.444 -1.247,1.082 c -3.223,2.792 -7.155,4.736 -11.46,5.648 -2.014,0.432 -7.598,0.432 -9.624,0 -4.388,-0.931 -8.421,-2.944 -11.714,-5.869 l -1,-0.88 -4.92,4.919 1.165,1.032 c 5.034,4.521 11.081,7.218 17.792,8.041 2.33,0.266 7.028,0.1 9.244,-0.332 5.863,-1.114 11.46,-3.907 15.639,-7.788 l 1.051,-0.981 z"
             id="path1751" /><path
             d="m 261.128,140.265 -2.394,-2.393 -0.696,0.597 c -0.994,0.849 -2.773,1.748 -4.255,2.109 -3.09,0.798 -6.395,0.1 -9.054,-1.881 l -1.064,-0.817 -4.837,4.838 0.565,0.615 c 0.645,0.664 2.824,2.146 4.071,2.773 2.475,1.228 5.736,1.88 8.611,1.709 3.077,-0.166 5.648,-0.962 8.231,-2.545 1.247,-0.747 3.128,-2.26 3.128,-2.507 0,-0.068 -1.077,-1.197 -2.394,-2.508 z"
             id="path1753" /></g></g></g></g></svg>
