<svg width="200" height="200" version="1.1" viewBox="0 0 200 200" xmlns="http://www.w3.org/2000/svg">
 <path d="m91.2 192c-12.1-0.568-26.7-2.67-36.1-5.19-9.42-2.52-17.4-6.04-23.7-10.4-2.73-1.91-10.7-9.69-12.6-12.2-3.28-4.51-4.74-8.25-5.71-14.6l-0.627-4.12-0.0038-29.2-0.0036-29.2-2.44-3.3c-1.34-1.82-3.65-5.12-5.13-7.35-2.68-4.02-2.69-4.05-3.02-6.29-0.263-1.78-0.269-2.68-0.0268-4.34 0.27-1.86 0.473-2.36 1.78-4.44 4.11-6.55 10.8-14.7 16.6-20.4l2.16-2.11 2.16-0.312c1.67-0.241 2.63-0.245 4.22-0.0188 2.29 0.326 3.93 1.06 9.61 4.29 1.85 1.05 3.4 1.91 3.47 1.91 0.0603 0 1.82-1.28 3.9-2.84 3.66-2.74 3.79-2.87 3.78-3.74-0.0108-0.496-0.177-3.55-0.37-6.78-0.282-4.71-0.29-6.35-0.0396-8.25l0.312-2.37 4.99-4.87 3.98-1.66c6.52-2.72 15-5.25 20.5-6.16 2.03-0.329 2.81-0.345 4.79-0.0932l2.37 0.301 2.27 2.3c2.33 2.37 3.88 4.82 7.01 11.1l1.1 2.22h6.96l1.1-2.22c3.13-6.3 4.68-8.75 7.01-11.1l2.27-2.3 2.37-0.301c1.98-0.251 2.77-0.236 4.81 0.091 6.43 1.03 18.4 4.86 23.8 7.59 0.665 0.338 2.21 1.62 3.44 2.85l2.23 2.24 0.317 2.37c0.254 1.91 0.248 3.5-0.035 8.25-0.194 3.23-0.36 6.28-0.37 6.78-0.018 0.87 0.113 1 3.82 3.78l3.84 2.88 0.9-0.504c0.497-0.277 2.11-1.19 3.6-2.03 4.87-2.76 6.35-3.41 8.58-3.73 1.6-0.23 2.56-0.228 4.22 0.0092l2.16 0.307 2.16 2.11c5.84 5.71 12.2 13.6 16.6 20.4 1.32 2.08 1.51 2.56 1.79 4.44 0.244 1.68 0.239 2.57-0.025 4.36-0.33 2.24-0.344 2.26-3.02 6.29-1.48 2.22-3.79 5.53-5.13 7.35l-2.44 3.3-1e-3 29.1-2e-3 29.1-0.62 4.22c-1.29 8.78-3.4 12.8-10.5 20-4.35 4.39-7.21 6.76-10.9 9.02-9.31 5.7-21 9.35-37.6 11.7-13.3 1.88-24.4 2.45-36.7 1.87z" fill="#084877"/>
 <path d="m114 183c21.7-1.77 38.3-6.6 49.7-14.5 3.17-2.19 7.66-6.65 9.55-9.48 4.18-6.26 5.13-11.1 4.97-25.5-0.04-3.7-0.047-16.4-0.015-28.3l0.059-21.6 2.21-2.92c1.22-1.61 3.65-5.06 5.4-7.67l3.2-4.76-0.584-0.954c-3.44-5.62-7.51-11-12.9-17l-2.54-2.85-2.04 1.01c-2.47 1.23-8.81 4.88-11.7 6.75l-2.13 1.37-1.58-1.41c-2.57-2.3-8.29-6.51-11.7-8.62-1.76-1.08-3.3-2.06-3.41-2.16-0.115-0.101-0.033-1.71 0.18-3.58 0.454-3.98 0.89-10 0.969-13.4l0.056-2.41-1.91-0.934c-2.52-1.24-6.58-2.82-10.4-4.06-3.21-1.05-10.5-2.99-11.2-3-0.506-0.0017-3.4 5.13-6.77 12l-2.42 4.94-1.48-0.268c-1.92-0.348-13.6-0.348-15.5 0l-1.48 0.268-2.42-4.94c-3.12-6.36-6.27-12-6.7-12-0.759 0-8.41 2.07-11.7 3.16-3.38 1.12-8.24 3.07-10.7 4.27l-1.14 0.561 0.0507 2.41c0.0721 3.36 0.505 9.39 0.964 13.4 0.213 1.87 0.294 3.49 0.18 3.6-0.114 0.109-1.61 1.05-3.33 2.09-3.9 2.37-9.68 6.65-12.3 9.11l-1.05 0.991-2.15-1.38c-2.94-1.89-9.27-5.53-11.8-6.76l-2.04-1.01-2.7 3.03c-4.83 5.42-8.51 10.2-11.8 15.4l-1.49 2.34 3.2 4.76c1.76 2.62 4.2 6.08 5.41 7.68l2.21 2.92 0.0031 14.5 0.0033 14.5s-0.506 21.9 0.289 32.8c0.525 7.1 3.42 13 9.06 18.6 7.02 6.92 16.8 11.7 31 15.2 8.64 2.12 17.2 3.27 29.8 4.04 2.9 0.175 19.2-0.079 22.6-0.35z" fill="#478cbf"/>
 <g fill="#084877">
  <path d="m162 89.8c-0.341-0.63-1.13-1.5-1.73-1.94l-1.13-0.788-44.6-0.262 29.7-29.7-7.74-7.74-35.3 35.3-35.3-35.3-3.89 3.86-3.86 3.89 29.8 29.8h-44.2l-1.16 0.604c-1.6 0.866-2.65 2.42-2.81 4.23-0.236 2.78-0.735 2.15 15.3 18.2 9.97 10 15.1 14.9 15.8 15.3 1.29 0.605 3.23 0.63 4.54 0.107 0.657-0.29 4.88-4.31 13.4-12.8l12.4-12.4 12.4 12.4c8.48 8.5 12.7 12.5 13.4 12.8 1.26 0.498 3.1 0.498 4.36 0 1.34-0.578 30.1-29.2 30.8-30.7 0.681-1.47 0.657-3.44-0.105-4.88zm-32.9 22.6c-0.159 0-3.52-3.25-7.48-7.22l-7.22-7.22h29.4l-7.22 7.22c-3.96 3.96-7.32 7.22-7.48 7.22zm-55.9 0c-0.159 0-3.52-3.25-7.48-7.22l-7.22-7.22h29.4l-7.22 7.22c-3.96 3.96-7.32 7.22-7.48 7.22z"/>
  <path d="m132 141-3.89-3.86-1.97 1.71c-5.09 4.41-11.3 7.48-18.1 8.92-3.18 0.682-12 0.682-15.2 0-6.93-1.47-13.3-4.65-18.5-9.27l-1.58-1.39-7.77 7.77 1.84 1.63c7.95 7.14 17.5 11.4 28.1 12.7 3.68 0.42 11.1 0.158 14.6-0.525 9.26-1.76 18.1-6.17 24.7-12.3l1.66-1.55z"/>
  <path d="m116 125-3.78-3.78-1.1 0.944c-1.57 1.34-4.38 2.76-6.72 3.33-4.88 1.26-10.1 0.159-14.3-2.97l-1.68-1.29-7.64 7.64 0.892 0.971c1.02 1.05 4.46 3.39 6.43 4.38 3.91 1.94 9.06 2.97 13.6 2.7 4.86-0.263 8.92-1.52 13-4.02 1.97-1.18 4.94-3.57 4.94-3.96 0-0.107-1.7-1.89-3.78-3.96z"/>
 </g>
</svg>
