<svg xmlns="http://www.w3.org/2000/svg" viewBox="0 0 500 500"><g id="freepik--background-complete--inject-135"><path d="M411.09,130.06c-4.77,0-123.92-.83-157.58-.83-2.35,0,.62-4.07,1.92-4.36,4.14-.9,8.45-1,12.65-1.39a41.17,41.17,0,0,0,12.06-3c3.32-1.4,6.62-3,10.21-3.57,6.93-1.09,13,2.67,19.52,4.33a14.74,14.74,0,0,0,11.82-1.62c3-1.8,5.74-4,8.88-5.56a48.75,48.75,0,0,1,38.94-1.78,45.56,45.56,0,0,1,8.51,4.36c3.18,2.08,5.92,4.75,9.1,6.81,7.06,4.56,15.79,3.08,23.49,5.7C411,129.27,411.51,130.06,411.09,130.06Z" style="fill:#ebebeb"></path><path d="M315.62,71.25c-6.32,0-112.55.7-119.22.49-.48,0-.74-.72-.27-1,4.21-2.08,9-1.66,13.36-3.13,2.57-.87,4.15-2.55,5.94-4.48A12.28,12.28,0,0,1,221,59.56a11.6,11.6,0,0,1,6-.19c2.15.51,4,1.75,6.08,2.52,5.1,1.93,10.06.1,13.71-3.68,3-3.11,6-6.05,10-7.72a13.31,13.31,0,0,1,10.64-.15c3.9,1.77,6.57,5.32,10.23,7.45,4.34,2.54,9.53,1.94,14.32,2.7s8.47,4.8,12.68,7.13A9,9,0,0,0,309.26,69c.94,0,1.86-.28,2.79-.4,1.44-.18,2.82-.13,3.79,1.07C316.08,70,316,71.25,315.62,71.25Z" style="fill:#ebebeb"></path><path d="M466.55,104.12c-4.61,0-82.16.51-87,.35a.38.38,0,0,1-.19-.7c3.07-1.52,6.56-1.21,9.75-2.29a10.37,10.37,0,0,0,4.34-3.27,8.92,8.92,0,0,1,4-2.63,8.53,8.53,0,0,1,4.4-.14,36.43,36.43,0,0,1,4.44,1.84c3.73,1.41,7.35.07,10-2.69,2.19-2.27,4.35-4.41,7.33-5.64a9.77,9.77,0,0,1,7.77-.1c2.84,1.29,4.8,3.88,7.47,5.44,3.17,1.85,6.95,1.41,10.45,2s6.19,3.5,9.26,5.2a6.53,6.53,0,0,0,3.34,1c.69,0,1.36-.21,2-.29a2.79,2.79,0,0,1,2.77.78C466.89,103.2,466.86,104.12,466.55,104.12Z" style="fill:#ebebeb"></path><path d="M219.19,153.18c-4.61,0-82.17.51-87,.35-.35,0-.54-.52-.19-.69,3.07-1.53,6.55-1.22,9.75-2.3a10.28,10.28,0,0,0,4.33-3.27,9,9,0,0,1,4-2.63,8.49,8.49,0,0,1,4.39-.14,39.14,39.14,0,0,1,4.44,1.84c3.73,1.41,7.35.07,10-2.68,2.19-2.28,4.35-4.42,7.33-5.64a9.72,9.72,0,0,1,7.77-.11c2.85,1.29,4.8,3.88,7.47,5.44,3.17,1.85,7,1.41,10.46,2s6.18,3.51,9.25,5.2a6.57,6.57,0,0,0,3.35,1,20.24,20.24,0,0,0,2-.29,2.79,2.79,0,0,1,2.77.78C219.53,152.27,219.49,153.18,219.19,153.18Z" style="fill:#ebebeb"></path><path d="M128.86,105.71c-4.61,0-82.17.51-87,.35-.35,0-.54-.52-.19-.69,3.07-1.52,6.56-1.22,9.75-2.3a10.37,10.37,0,0,0,4.34-3.27,9,9,0,0,1,4-2.63,8.53,8.53,0,0,1,4.4-.14,38.16,38.16,0,0,1,4.44,1.85c3.72,1.4,7.35.07,10-2.69,2.19-2.27,4.35-4.42,7.33-5.64a9.72,9.72,0,0,1,7.77-.11c2.84,1.29,4.8,3.88,7.47,5.44,3.17,1.85,7,1.41,10.45,2s6.19,3.51,9.26,5.2a6.53,6.53,0,0,0,3.34,1,20,20,0,0,0,2-.29,2.79,2.79,0,0,1,2.77.78C129.2,104.8,129.16,105.71,128.86,105.71Z" style="fill:#ebebeb"></path><path d="M260.15,448.61c-.77-.32-1.11.94-.34,1.26a4.24,4.24,0,0,1,2.47,5.13.65.65,0,0,0,1.26.35A5.59,5.59,0,0,0,260.15,448.61Z" style="fill:#ebebeb"></path><path d="M265.87,447.39a10.06,10.06,0,0,0-.75,5.78c.13.83,1.39.48,1.26-.35a8.4,8.4,0,0,1,.62-4.77C267.34,447.29,266.21,446.62,265.87,447.39Z" style="fill:#ebebeb"></path><path d="M61.06,271.63c-.78-.32-1.12.94-.35,1.26A4.24,4.24,0,0,1,63.18,278a.65.65,0,0,0,1.26.35A5.58,5.58,0,0,0,61.06,271.63Z" style="fill:#ebebeb"></path><path d="M66.78,270.41a10,10,0,0,0-.76,5.78c.13.83,1.39.47,1.26-.35a8.41,8.41,0,0,1,.63-4.77C68.24,270.31,67.12,269.64,66.78,270.41Z" style="fill:#ebebeb"></path><path d="M443.53,350.24c-.78-.32-1.11.94-.35,1.26a4.25,4.25,0,0,1,2.47,5.13.65.65,0,0,0,1.26.35A5.58,5.58,0,0,0,443.53,350.24Z" style="fill:#ebebeb"></path><path d="M449.25,349a10,10,0,0,0-.76,5.78c.13.83,1.39.48,1.26-.35a8.49,8.49,0,0,1,.63-4.77C450.71,348.92,449.59,348.25,449.25,349Z" style="fill:#ebebeb"></path><path d="M284.75,306.64c-.74-.39-1.4.74-.66,1.13a4,4,0,0,1,2.16,4c-.07.84,1.24.84,1.31,0A5.29,5.29,0,0,0,284.75,306.64Z" style="fill:#ebebeb"></path><path d="M288.64,304.6c-.4-.74-1.52-.08-1.13.66a10.43,10.43,0,0,1,1.24,5.58c-.05.85,1.26.84,1.3,0A11.72,11.72,0,0,0,288.64,304.6Z" style="fill:#ebebeb"></path><path d="M291.67,305.47a6.81,6.81,0,0,0-.83,4.17c.1.82,1.41.83,1.31,0a5.56,5.56,0,0,1,.65-3.51C293.21,305.39,292.08,304.73,291.67,305.47Z" style="fill:#ebebeb"></path><path d="M115.27,305c-.74-.39-1.4.74-.66,1.13a4,4,0,0,1,2.16,4c-.06.84,1.24.83,1.31,0A5.29,5.29,0,0,0,115.27,305Z" style="fill:#ebebeb"></path><path d="M119.16,302.92c-.4-.74-1.52-.08-1.13.66a10.46,10.46,0,0,1,1.24,5.59c0,.84,1.26.84,1.3,0A11.73,11.73,0,0,0,119.16,302.92Z" style="fill:#ebebeb"></path><path d="M122.19,303.79a6.81,6.81,0,0,0-.83,4.17c.1.82,1.41.83,1.31,0a5.57,5.57,0,0,1,.65-3.51C123.73,303.71,122.6,303.05,122.19,303.79Z" style="fill:#ebebeb"></path><path d="M195.13,301.74a.65.65,0,0,0-.66,1.12,5.32,5.32,0,0,1,2.63,4.93c0,.84,1.26.84,1.31,0A6.6,6.6,0,0,0,195.13,301.74Z" style="fill:#ebebeb"></path><path d="M199.92,304.86l-.45,2.63c-.14.83,1.12,1.18,1.26.35l.45-2.63C201.32,304.39,200.06,304,199.92,304.86Z" style="fill:#ebebeb"></path><path d="M96.2,428.36c-.74-.39-1.41.74-.66,1.13a4,4,0,0,1,2.16,3.95c-.07.84,1.24.84,1.31,0A5.29,5.29,0,0,0,96.2,428.36Z" style="fill:#ebebeb"></path><path d="M100.09,426.32c-.4-.74-1.53-.08-1.13.66a10.33,10.33,0,0,1,1.23,5.58c0,.84,1.27.84,1.31,0A11.7,11.7,0,0,0,100.09,426.32Z" style="fill:#ebebeb"></path><path d="M103.12,427.19a6.81,6.81,0,0,0-.83,4.17c.1.82,1.41.83,1.3,0a5.66,5.66,0,0,1,.66-3.52C104.65,427.11,103.53,426.45,103.12,427.19Z" style="fill:#ebebeb"></path><path d="M120.41,445.13a.65.65,0,0,0-.66,1.13,5.33,5.33,0,0,1,2.63,4.93c0,.84,1.26.83,1.3,0A6.63,6.63,0,0,0,120.41,445.13Z" style="fill:#ebebeb"></path><path d="M125.19,448.26l-.45,2.63c-.14.82,1.12,1.18,1.26.35l.45-2.63C126.59,447.79,125.34,447.43,125.19,448.26Z" style="fill:#ebebeb"></path><path d="M50.71,330.16c-.65-.53-1.58.39-.93.92A6.07,6.07,0,0,1,52,336.2c0,.84,1.26.84,1.31,0A7.3,7.3,0,0,0,50.71,330.16Z" style="fill:#ebebeb"></path><path d="M359.66,289c.64-.54,1.57.38.92.92a6.09,6.09,0,0,0-2.26,5.12c.05.84-1.26.83-1.31,0A7.3,7.3,0,0,1,359.66,289Z" style="fill:#ebebeb"></path><path d="M349.58,332.13a7.73,7.73,0,0,0-2.07,6.91c.15.83,1.41.48,1.26-.35a6.37,6.37,0,0,1,1.74-5.64C351.09,332.45,350.17,331.52,349.58,332.13Z" style="fill:#ebebeb"></path><path d="M344.82,332.84v4.39a.66.66,0,0,0,1.31,0v-4.39A.66.66,0,0,0,344.82,332.84Z" style="fill:#ebebeb"></path><path d="M351.81,334.22a4,4,0,0,0-1.84,3.56c0,.83,1.34.84,1.3,0a2.73,2.73,0,0,1,1.2-2.43C353.17,334.89,352.52,333.76,351.81,334.22Z" style="fill:#ebebeb"></path><path d="M231.5,271.94a7.74,7.74,0,0,0-2.07,6.91c.15.83,1.41.48,1.26-.35a6.34,6.34,0,0,1,1.74-5.63C233,272.26,232.09,271.34,231.5,271.94Z" style="fill:#ebebeb"></path><path d="M226.74,272.66V277a.66.66,0,0,0,1.31,0v-4.38A.66.66,0,0,0,226.74,272.66Z" style="fill:#ebebeb"></path><path d="M233.73,274a4,4,0,0,0-1.84,3.55c0,.84,1.34.84,1.3,0a2.73,2.73,0,0,1,1.2-2.43C235.09,274.7,234.44,273.57,233.73,274Z" style="fill:#ebebeb"></path></g><g id="freepik--Mountains--inject-135"><circle cx="283.48" cy="157.63" r="24.9" style="fill:#478CBF"></circle><path d="M42.46,226.61s72-34.88,82.57-38c8.07-2.39,30.74-22.28,47.17-36.18,2-1.68,9.56-.3,11.38-1.86,6.14-5.27,11.12-9.65,13.69-11.91,5.25-4.6,35.46-2.47,40.4,0,2.54,1.28,20.47,20,31.89,28.94,3.67,2.85,35.06,1.65,44.95,3.11,9.56,1.42,55.16,31.44,62.58,33.4,41,10.84,73.09,20.52,81.25,22.49H42.46Z" style="fill:#478CBF"></path><path d="M42.46,226.61s72-34.88,82.57-38c8.07-2.39,30.74-22.28,47.17-36.18,2-1.68,9.56-.3,11.38-1.86,6.14-5.27,11.12-9.65,13.69-11.91,5.25-4.6,35.46-2.47,40.4,0,2.54,1.28,20.47,20,31.89,28.94,3.67,2.85,35.06,1.65,44.95,3.11,9.56,1.42,55.16,31.44,62.58,33.4,41,10.84,73.09,20.52,81.25,22.49H42.46Z" style="opacity:0.4"></path><path d="M42.46,226.6h0s0,0,0,0Z" style="opacity:0.2"></path><path d="M42.48,226.6H269C256.57,222,230,212,227.66,209.81c-3-2.81-7-23.18-8.14-25.88s-22.28-18.84-23.16-21.75,2.62-24.08,2.69-24.51h0l-.05,0-.22.09-.26.12-.25.12-.21.11-.23.14-.09.05-.18.13-.11.09-.18.14c-.11.11-.24.21-.37.33l-.41.36-.44.38-.47.41c-2.79,2.44-7,6.14-12,10.42a1.34,1.34,0,0,1-.23.16.9.9,0,0,1-.24.12,1.64,1.64,0,0,1-.33.14l-.28.08s-.67,10.2-.53,11.11,6.25,7.38,6.61,8.79-.55,6.82,0,8c.34.68,6.44,7.77,8,9.5.44.47-4.39.17-4.52.17-.61,0-6.31-6.31-7.41-6.76s-2-8.93-2.77-9.57-8.19-7.66-9.16-8.43-.61-11.43-.61-11.43c-3.08,2.61-6.39,5.42-9.76,8.3l-2.55,2.16-.86.72-2.35,2-3.21,2.69-1.6,1.33-1.59,1.31-1.58,1.3c-2.09,1.71-4.15,3.37-6.13,4.92-.5.39-1,.78-1.48,1.15-3.76,2.92-7.21,5.43-10.11,7.28l-1.38.84c-.31.19-.6.36-.9.52l-.52.29c-.52.28-1,.53-1.46.73,0,0,18.2,7.55,20.89,9.7S156.84,213.39,159,215s16.09,7.81,15.51,8.31-26.41-2.53-29.33-5.47-9.17-14-12-15.56c-2.21-1.15-14.5-6.31-20.2-8.7C89.45,203.86,43.51,226.1,42.48,226.6Z" style="opacity:0.1"></path><path d="M310.59,170.32s-4.27,6.56-5.92,7.44-13.87,2.86-14.81,2.74-13.06,9.71-13.94,9.86-15.68,2.39-16.48,2S272.22,184,273,183.13s-1.68-3.69-2-4.9,1.56-9.67,1.56-9.67c6.35,1.14,20.55,1.11,31.31,1.45h0l6.69.31Z" style="opacity:0.1"></path><path d="M130,226.6s120.5-16.89,130.71-19.1c6.49-1.4,36.52-24.48,57-37.75,1.58-1,9.48-.12,10.45-.52,8.26-3.4,14.59-9.47,19.66-9.47,5.53,0,47.91,38,52.33,41.23s28.29,14.74,35.69,15.91,27.78,9.7,27.78,9.7Z" style="fill:#478CBF"></path><path d="M130,226.6s120.5-16.89,130.71-19.1c6.49-1.4,36.52-24.48,57-37.75,1.58-1,9.48-.12,10.45-.52,8.26-3.4,14.59-9.47,19.66-9.47,5.53,0,47.91,38,52.33,41.23s28.29,14.74,35.69,15.91,27.78,9.7,27.78,9.7Z" style="opacity:0.30000000000000004"></path><path d="M287.26,226.6H463.68s-6.1-2.55-12.83-5l-1.16-.43-.58-.22-1.17-.42-.58-.21-1.74-.6c-.77-.27-1.52-.52-2.26-.76s-1.46-.47-2.15-.68l-1-.3-1-.28-.92-.24-.87-.21q-.84-.19-1.53-.3c-.23,0-.48-.08-.74-.14s-.54-.12-.83-.2-.91-.24-1.41-.39l-1-.33-1.09-.37c-4.13-1.43-9.47-3.72-14.57-6.09-1.39-.64-2.76-1.3-4.09-1.94l-1.31-.64-1.88-.94c-.42-.2-.81-.41-1.2-.61-.59-.3-1.16-.59-1.7-.88l-1.05-.55c-1.19-.64-2.23-1.22-3.08-1.73l-.68-.41c-.42-.26-.77-.49-1-.69-4.42-3.2-46.8-41.23-52.33-41.23,0,0,10.25,20.7,10.13,22.12s-14.6,11.34-14.89,12.39-.64,7.35-1.66,7.88C340.71,202.54,305,218.72,287.26,226.6Zm85.86-26.32c-.16-.42,3.92-5.05,4.43-5.29a52.44,52.44,0,0,1,6.14-.25c.29,0,1.84-1.65,2.12-1.62s2.07.59,2.35.71-.86,2.77-1.4,2.87-4.38,3.46-5,3.58S373.34,200.83,373.12,200.28Z" style="opacity:0.1"></path><path d="M38.58,226.6s3.36-1.39,18.59-4.74C63,220.58,66.72,208.55,79,200.3c1.66-1.11,10-.71,11.56-1.72,6.76-4.35,16.11-16.87,20-17.13,3.25-.21,6.08-.32,7.67.21,2.61.87,18.69,14.17,22.36,15.14,1.41.38,7.09.83,9.86,2.51,1.43.87,20.66,15.61,22.42,16.07,14.93,3.83,46.59,11.49,66.65,11.22Z" style="fill:#478CBF"></path><path d="M38.58,226.6s3.36-1.39,18.59-4.74C63,220.58,66.72,208.55,79,200.3c1.66-1.11,10-.71,11.56-1.72,6.76-4.35,16.11-16.87,20-17.13,3.25-.21,6.08-.32,7.67.21,2.61.87,18.69,14.17,22.36,15.14,1.41.38,7.09.83,9.86,2.51,1.43.87,20.66,15.61,22.42,16.07,14.93,3.83,46.59,11.49,66.65,11.22Z" style="opacity:0.2"></path><path d="M87.12,199.24c.59-.05,1.13-.1,1.62-.17C88.26,199.13,87.71,199.19,87.12,199.24Z" style="fill:#3e3e3d;opacity:0.2"></path><path d="M38.57,226.6H152.28S120.21,211,119.79,210.44s-1.44-4.35-1.88-5.52-11-7.29-10.83-8.58a78.55,78.55,0,0,1,3.19-8c1.55-3.6,3.09-7,3.09-7-.55,0-1.13,0-1.73.08l-.48,0-.56,0c-3.88.26-13.23,12.78-20,17.13a5.31,5.31,0,0,1-1.86.49,16.72,16.72,0,0,1,1.14,2.67c-.1.18,2,.53,2.47.82s7.44,8.65,7.6,9-.22,2.77-.55,2.7-4-1.11-4.32-1.24-6.37-7.05-6.82-7.16A33.07,33.07,0,0,1,84,204.57a44.66,44.66,0,0,1-3-4.82,5.35,5.35,0,0,0-2,.55C66.72,208.55,63,220.58,57.17,221.86l-.5.1C41.58,225.24,38.57,226.6,38.57,226.6Z" style="opacity:0.1"></path></g><g id="freepik--Floor--inject-135"><polygon points="32.53 226.61 86.89 226.37 141.26 226.28 250 226.11 358.74 226.28 413.11 226.37 467.47 226.61 413.11 226.85 358.74 226.94 250 227.11 141.26 226.94 86.89 226.85 32.53 226.61" style="fill:#263238"></polygon></g><g id="freepik--Shadow--inject-135"><path d="M410.1,425.92c0,8.27-71.68,15-160.1,15s-160.1-6.71-160.1-15,71.68-15,160.1-15S410.1,417.65,410.1,425.92Z" style="fill:#ebebeb"></path></g><g id="freepik--Trees--inject-135"><path d="M301.44,232c-.95,1-12,1.37-16,1.37s-15.07-.42-16-1.37,12.43-74.38,16-74.38S302.39,231.06,301.44,232Z" style="fill:#455a64"></path><path d="M301.67,213.3c-2.73,1-12.85,5.16-15,6.36,0-.46,0-.92,0-1.38,2.44-1.44,4.89-2.86,7.34-4.28a88.11,88.11,0,0,0,7.89-4.69c.12-.09.05-.33-.11-.27a65.22,65.22,0,0,0-7.72,4.27c-2.49,1.46-4.95,3-7.4,4.47q0-5.26,0-10.55a83.12,83.12,0,0,0,11.52-5.86c.13-.08,0-.31-.1-.25a85.31,85.31,0,0,0-11.43,5.63l0-5.49c-.11-9.42-.12-18.85-.36-28.27,2.39-1.21,4.86-2.28,7.26-3.5.16-.08.05-.35-.12-.28-2.43.94-4.78,2.07-7.16,3.12-.13-4.86-.32-9.72-.61-14.58a.13.13,0,0,0-.25,0c-.34,9-.31,18.06-.2,27.1-2.48-2-5.13-3.74-7.66-5.66-.1-.08-.19.09-.1.16,2.65,2,5.12,4.24,7.77,6.25,0,.51,0,1,0,1.53-2.69-1.23-5.43-2.38-8.15-3.54-.21-.1-.4.21-.18.31,2.77,1.33,5.53,2.69,8.34,3.94.06,4.48.14,8.95.2,13.42.1,7.82.27,15.63.44,23.44q-7.64-3.85-15.37-7.5c-.19-.09-.36.18-.17.29a161.33,161.33,0,0,0,15.55,7.81q.21,9.73.36,19.48a.31.31,0,0,0,.61,0c-.09-8.28-.11-16.56-.13-24.84,2.68-.66,12.81-5,15.22-6.19C302.1,213.63,301.93,213.2,301.67,213.3Z" style="fill:#37474f"></path><path d="M391.47,232c-1,1-12,1.37-16,1.37s-15.06-.42-16-1.37,12.43-74.38,16-74.38S392.41,231.06,391.47,232Z" style="fill:#455a64"></path><path d="M391.69,213.3c-2.73,1-12.84,5.16-15,6.36v-1.38c2.44-1.44,4.88-2.86,7.33-4.28a88.11,88.11,0,0,0,7.89-4.69c.12-.09.05-.33-.11-.27a66,66,0,0,0-7.72,4.27c-2.49,1.46-4.94,3-7.4,4.47q0-5.26,0-10.55a83.12,83.12,0,0,0,11.52-5.86c.13-.08.05-.31-.1-.25a84.61,84.61,0,0,0-11.42,5.63c0-1.83,0-3.66,0-5.49-.1-9.42-.12-18.85-.36-28.27,2.4-1.21,4.86-2.28,7.26-3.5.16-.08,0-.35-.12-.28-2.43.94-4.77,2.07-7.16,3.12-.13-4.86-.32-9.72-.61-14.58a.13.13,0,0,0-.25,0c-.34,9-.31,18.06-.2,27.1-2.48-2-5.13-3.74-7.66-5.66-.1-.08-.19.09-.09.16,2.64,2,5.11,4.24,7.76,6.25,0,.51,0,1,0,1.53-2.69-1.23-5.42-2.38-8.15-3.54-.21-.1-.4.21-.18.31,2.77,1.33,5.53,2.69,8.34,3.94.06,4.48.14,8.95.2,13.42.1,7.82.27,15.63.44,23.44q-7.62-3.85-15.36-7.5c-.2-.09-.37.18-.18.29a161.33,161.33,0,0,0,15.55,7.81q.21,9.73.36,19.48a.31.31,0,0,0,.61,0c-.09-8.28-.1-16.56-.13-24.84,2.68-.66,12.81-5,15.22-6.19C392.12,213.63,392,213.2,391.69,213.3Z" style="fill:#37474f"></path><path d="M68.44,232.32c-.93.92-11.72,1.33-15.64,1.33s-14.72-.41-15.64-1.33S49.3,159.67,52.8,159.67,69.37,231.39,68.44,232.32Z" style="fill:#455a64"></path><path d="M68.66,214c-2.67,1-12.54,5-14.68,6.21V218.9q3.57-2.1,7.16-4.18a84.11,84.11,0,0,0,7.71-4.58c.11-.08.05-.32-.11-.26a64.41,64.41,0,0,0-7.54,4.17c-2.43,1.42-4.83,2.89-7.22,4.37,0-3.44,0-6.87,0-10.31a83.24,83.24,0,0,0,11.26-5.72c.12-.08,0-.3-.1-.24a82.51,82.51,0,0,0-11.16,5.5c0-1.79,0-3.58,0-5.37-.1-9.2-.12-18.41-.35-27.62,2.34-1.18,4.75-2.22,7.09-3.41.16-.07,0-.34-.12-.28-2.37.93-4.66,2-7,3.05-.13-4.75-.31-9.49-.6-14.23a.12.12,0,1,0-.24,0c-.33,8.81-.3,17.64-.19,26.46-2.43-1.94-5-3.65-7.48-5.53-.1-.07-.19.09-.1.16,2.58,2,5,4.14,7.59,6.1,0,.5,0,1,0,1.5-2.63-1.21-5.3-2.32-8-3.46-.21-.09-.4.21-.18.31,2.7,1.3,5.4,2.62,8.15,3.85q.09,6.56.19,13.1c.1,7.64.27,15.27.43,22.89q-7.45-3.76-15-7.32a.17.17,0,0,0-.16.29,155.94,155.94,0,0,0,15.18,7.62c.14,6.34.27,12.68.35,19a.3.3,0,0,0,.6,0C54,236.7,54,228.61,54,220.52c2.62-.64,12.51-4.88,14.86-6C69.09,214.36,68.91,213.94,68.66,214Z" style="fill:#37474f"></path><path d="M210.71,231.35c-1,1-12.6,1.44-16.82,1.44s-15.83-.44-16.82-1.44,13.06-78.12,16.82-78.12S211.7,230.36,210.71,231.35Z" style="fill:#37474f"></path><path d="M210.94,211.7c-2.86,1.1-13.49,5.42-15.78,6.68,0-.48,0-1,0-1.45q3.85-2.27,7.71-4.49a93.28,93.28,0,0,0,8.29-4.93c.12-.09,0-.35-.12-.28a68.11,68.11,0,0,0-8.11,4.48c-2.61,1.53-5.19,3.11-7.77,4.7,0-3.7,0-7.39,0-11.09a88.71,88.71,0,0,0,12.1-6.15c.13-.08,0-.32-.11-.26a89,89,0,0,0-12,5.91c0-1.92,0-3.84,0-5.76-.1-9.9-.12-19.8-.38-29.7,2.52-1.27,5.12-2.39,7.63-3.67.17-.08.05-.37-.13-.3-2.55,1-5,2.18-7.52,3.28-.13-5.11-.33-10.21-.64-15.31a.13.13,0,0,0-.26,0c-.36,9.48-.33,19-.21,28.46-2.61-2.09-5.39-3.93-8-5.95-.1-.08-.2.1-.1.17,2.77,2.12,5.37,4.46,8.15,6.56,0,.54,0,1.07,0,1.61-2.83-1.29-5.7-2.5-8.55-3.72-.23-.1-.43.22-.2.33,2.91,1.4,5.82,2.82,8.76,4.14.07,4.7.15,9.4.21,14.1.11,8.21.29,16.41.46,24.61-5.33-2.7-10.72-5.33-16.13-7.88-.21-.09-.39.2-.18.31a168.37,168.37,0,0,0,16.33,8.21c.14,6.82.28,13.63.37,20.45a.32.32,0,0,0,.64,0c-.09-8.69-.1-17.39-.13-26.09,2.82-.69,13.46-5.25,16-6.5C211.4,212.05,211.22,211.6,210.94,211.7Z" style="fill:#455a64"></path><path d="M110.61,231.35c-1,1-12.6,1.44-16.82,1.44S78,232.35,77,231.35,90,153.23,93.79,153.23,111.61,230.36,110.61,231.35Z" style="fill:#37474f"></path><path d="M110.84,211.7c-2.86,1.1-13.48,5.42-15.78,6.68v-1.45q3.84-2.27,7.7-4.49a91.87,91.87,0,0,0,8.29-4.93c.12-.09,0-.35-.12-.28a68.9,68.9,0,0,0-8.11,4.48c-2.61,1.53-5.19,3.11-7.77,4.7,0-3.7,0-7.39,0-11.09a88.71,88.71,0,0,0,12.1-6.15c.13-.08,0-.32-.11-.26a89.61,89.61,0,0,0-12,5.91c0-1.92,0-3.84,0-5.76-.1-9.9-.12-19.8-.37-29.7,2.51-1.27,5.11-2.39,7.62-3.67.17-.08.05-.37-.12-.3-2.56,1-5,2.18-7.52,3.28-.14-5.11-.34-10.21-.65-15.31a.13.13,0,0,0-.26,0c-.35,9.48-.32,19-.2,28.46-2.61-2.09-5.39-3.93-8-5.95-.1-.08-.2.1-.1.17,2.78,2.12,5.37,4.46,8.16,6.56,0,.54,0,1.07,0,1.61-2.83-1.29-5.7-2.5-8.56-3.72-.23-.1-.43.22-.2.33,2.92,1.4,5.82,2.82,8.77,4.14.06,4.7.14,9.4.2,14.1.11,8.21.29,16.41.47,24.61q-8-4-16.14-7.88c-.21-.09-.39.2-.18.31a168.37,168.37,0,0,0,16.33,8.21c.15,6.82.29,13.63.37,20.45a.33.33,0,0,0,.65,0c-.1-8.69-.11-17.39-.14-26.09,2.82-.69,13.46-5.25,16-6.5C111.3,212.05,111.12,211.6,110.84,211.7Z" style="fill:#455a64"></path><path d="M161.23,235.49c.7.69,8.81,1,11.76,1s11.06-.31,11.75-1-9.12-54.61-11.75-54.61S160.53,234.79,161.23,235.49Z" style="fill:#455a64"></path><path d="M161.07,221.75c2,.76,9.42,3.79,11,4.67v-1l-5.38-3.14a63.64,63.64,0,0,1-5.8-3.44c-.08-.06,0-.25.09-.19a45.92,45.92,0,0,1,5.66,3.13c1.83,1.07,3.63,2.17,5.43,3.28,0-2.58,0-5.17,0-7.75a61.1,61.1,0,0,1-8.46-4.3c-.1-.05,0-.22.07-.18a62.75,62.75,0,0,1,8.39,4.13c0-1.34,0-2.68,0-4,.07-6.91.08-13.84.26-20.75-1.76-.89-3.57-1.68-5.33-2.57a.11.11,0,0,1,.09-.21c1.78.7,3.5,1.52,5.25,2.29.1-3.57.24-7.13.45-10.7a.1.1,0,0,1,.19,0c.24,6.63.22,13.26.14,19.89,1.82-1.45,3.77-2.74,5.62-4.15.07-.06.14.07.07.12-1.94,1.48-3.75,3.11-5.7,4.58,0,.38,0,.75,0,1.13,2-.91,4-1.75,6-2.6.16-.07.3.15.14.23-2,1-4.07,2-6.13,2.89q-.08,4.94-.14,9.85c-.08,5.74-.2,11.47-.33,17.21,3.73-1.89,7.5-3.73,11.28-5.51.14-.07.27.14.13.22a118.22,118.22,0,0,1-11.42,5.73c-.1,4.76-.2,9.53-.26,14.29a.23.23,0,0,1-.45,0c.07-6.07.08-12.15.1-18.23a110.13,110.13,0,0,1-11.17-4.54A.18.18,0,0,1,161.07,221.75Z" style="fill:#37474f"></path><path d="M68.57,235.49c.69.69,8.8,1,11.75,1s11.06-.31,11.76-1S83,180.88,80.32,180.88,67.87,234.79,68.57,235.49Z" style="fill:#455a64"></path><path d="M68.4,221.75c2,.76,9.43,3.79,11,4.67,0-.34,0-.68,0-1l-5.38-3.14a63.64,63.64,0,0,1-5.8-3.44c-.09-.06,0-.25.08-.19A46.79,46.79,0,0,1,74,221.76c1.83,1.07,3.63,2.17,5.43,3.28l0-7.75A61.67,61.67,0,0,1,71,213c-.09-.05,0-.22.08-.18a63.35,63.35,0,0,1,8.39,4.13c0-1.34,0-2.68,0-4,.08-6.91.09-13.84.27-20.75-1.76-.89-3.58-1.68-5.33-2.57a.11.11,0,0,1,.09-.21c1.78.7,3.5,1.52,5.25,2.29.1-3.57.23-7.13.45-10.7,0-.11.18-.12.18,0,.25,6.63.23,13.26.15,19.89,1.82-1.45,3.76-2.74,5.62-4.15.07-.06.14.07.07.12-1.94,1.48-3.75,3.11-5.7,4.58,0,.38,0,.75,0,1.13,2-.91,4-1.75,6-2.6.15-.07.29.15.13.23-2,1-4.06,2-6.12,2.89l-.15,9.85c-.07,5.74-.2,11.47-.32,17.21q5.59-2.84,11.28-5.51c.14-.07.27.14.12.22a118.05,118.05,0,0,1-11.41,5.73c-.1,4.76-.2,9.53-.26,14.29a.23.23,0,0,1-.45,0c.07-6.07.08-12.15.09-18.23a112,112,0,0,1-11.17-4.54C68.08,222,68.21,221.68,68.4,221.75Z" style="fill:#37474f"></path><path d="M342.27,235.49c.69.69,8.8,1,11.75,1s11.06-.31,11.76-1-9.13-54.61-11.76-54.61S341.57,234.79,342.27,235.49Z" style="fill:#37474f"></path><path d="M342.1,221.75c2,.76,9.43,3.79,11,4.67,0-.34,0-.68,0-1l-5.39-3.14a64.87,64.87,0,0,1-5.79-3.44c-.09-.06,0-.25.08-.19a46.79,46.79,0,0,1,5.67,3.13c1.82,1.07,3.63,2.17,5.43,3.28,0-2.58,0-5.17,0-7.75a61.67,61.67,0,0,1-8.46-4.3c-.09-.05,0-.22.08-.18a63.23,63.23,0,0,1,8.38,4.13l0-4c.08-6.91.09-13.84.27-20.75-1.77-.89-3.58-1.68-5.34-2.57-.11-.06,0-.26.09-.21,1.79.7,3.51,1.52,5.26,2.29.09-3.57.23-7.13.45-10.7a.09.09,0,0,1,.18,0c.25,6.63.23,13.26.14,19.89,1.83-1.45,3.77-2.74,5.63-4.15.07-.06.14.07.07.12-1.94,1.48-3.76,3.11-5.7,4.58,0,.38,0,.75,0,1.13,2-.91,4-1.75,6-2.6.16-.07.3.15.14.23-2,1-4.06,2-6.12,2.89-.05,3.29-.11,6.57-.15,9.85-.07,5.74-.2,11.47-.32,17.21q5.6-2.84,11.28-5.51a.13.13,0,0,1,.12.22,118.05,118.05,0,0,1-11.41,5.73c-.1,4.76-.2,9.53-.26,14.29,0,.29-.46.29-.45,0,.06-6.07.07-12.15.09-18.23A111.07,111.07,0,0,1,342,222.08C341.78,222,341.91,221.68,342.1,221.75Z" style="fill:#455a64"></path><path d="M442.54,235.49c.69.69,8.8,1,11.75,1s11.06-.31,11.76-1-9.13-54.61-11.76-54.61S441.84,234.79,442.54,235.49Z" style="fill:#37474f"></path><path d="M442.37,221.75c2,.76,9.43,3.79,11,4.67,0-.34,0-.68,0-1L448,222.26a64.87,64.87,0,0,1-5.79-3.44c-.09-.06,0-.25.08-.19a46.79,46.79,0,0,1,5.67,3.13c1.83,1.07,3.63,2.17,5.43,3.28,0-2.58,0-5.17,0-7.75A61.67,61.67,0,0,1,445,213c-.09-.05,0-.22.08-.18a62.63,62.63,0,0,1,8.38,4.13l0-4c.08-6.91.09-13.84.27-20.75-1.76-.89-3.58-1.68-5.33-2.57-.12-.06,0-.26.08-.21,1.79.7,3.51,1.52,5.26,2.29.1-3.57.23-7.13.45-10.7,0-.11.18-.12.18,0,.25,6.63.23,13.26.15,19.89,1.82-1.45,3.76-2.74,5.62-4.15.07-.06.14.07.07.12-1.94,1.48-3.76,3.11-5.7,4.58,0,.38,0,.75,0,1.13,2-.91,4-1.75,6-2.6.15-.07.29.15.13.23-2,1-4.06,2-6.12,2.89l-.15,9.85c-.07,5.74-.2,11.47-.32,17.21q5.6-2.84,11.28-5.51c.14-.07.27.14.12.22A118.05,118.05,0,0,1,454,230.56c-.1,4.76-.2,9.53-.26,14.29a.23.23,0,0,1-.45,0c.07-6.07.08-12.15.09-18.23a111.07,111.07,0,0,1-11.17-4.54C442.05,222,442.18,221.68,442.37,221.75Z" style="fill:#455a64"></path><path d="M363.55,258.87c-1.9,1.9-24,2.75-32.09,2.75s-30.2-.85-32.1-2.75,24.92-149.07,32.1-149.07S365.45,257,363.55,258.87Z" style="fill:#455a64"></path><path d="M364,221.37c-5.47,2.09-25.74,10.34-30.12,12.75,0-.93,0-1.85,0-2.77,4.89-2.88,9.8-5.72,14.7-8.58,5.26-3.06,10.91-5.79,15.82-9.4.24-.17.1-.67-.23-.53-5.41,2.25-10.43,5.59-15.47,8.55s-9.91,5.93-14.82,9q0-10.58-.09-21.16a168,168,0,0,0,23.09-11.74c.26-.15.09-.62-.2-.49a169.44,169.44,0,0,0-22.9,11.28c0-3.67,0-7.33-.08-11-.2-18.88-.24-37.79-.72-56.68,4.81-2.42,9.76-4.56,14.56-7,.31-.16.09-.71-.24-.58-4.88,1.91-9.57,4.16-14.36,6.27-.25-9.75-.63-19.49-1.22-29.22a.25.25,0,0,0-.5,0c-.68,18.09-.62,36.2-.39,54.31-5-4-10.29-7.49-15.36-11.35-.19-.15-.38.19-.19.33,5.3,4,10.25,8.5,15.57,12.52l0,3.07c-5.39-2.47-10.87-4.77-16.32-7.1-.43-.19-.81.42-.38.63,5.56,2.67,11.1,5.38,16.72,7.9.13,9,.28,17.94.4,26.9.21,15.66.55,31.31.88,47q-15.27-7.72-30.79-15c-.39-.18-.73.37-.34.59a322.83,322.83,0,0,0,31.16,15.66c.28,13,.55,26,.71,39a.62.62,0,0,0,1.23,0c-.18-16.6-.21-33.19-.25-49.78,5.37-1.33,25.67-10,30.49-12.4C364.87,222,364.52,221.17,364,221.37Z" style="fill:#37474f"></path><path d="M150.34,258.87c-1.9,1.9-24,2.75-32.09,2.75s-30.2-.85-32.1-2.75,24.92-149.07,32.1-149.07S152.24,257,150.34,258.87Z" style="fill:#455a64"></path><path d="M150.79,221.37c-5.47,2.09-25.74,10.34-30.12,12.75,0-.93,0-1.85,0-2.77,4.89-2.88,9.8-5.72,14.7-8.58,5.26-3.06,10.91-5.79,15.82-9.4.24-.17.1-.67-.23-.53-5.41,2.25-10.43,5.59-15.47,8.55s-9.91,5.93-14.82,9q0-10.58-.09-21.16a168,168,0,0,0,23.09-11.74c.26-.15.09-.62-.2-.49a169.44,169.44,0,0,0-22.9,11.28c0-3.67,0-7.33-.08-11-.2-18.88-.24-37.79-.72-56.68,4.81-2.42,9.76-4.56,14.56-7,.31-.16.09-.71-.25-.58-4.87,1.91-9.56,4.16-14.35,6.27-.26-9.75-.63-19.49-1.22-29.22a.25.25,0,0,0-.5,0c-.68,18.09-.62,36.2-.39,54.31-5-4-10.29-7.49-15.36-11.35-.19-.15-.38.19-.19.33,5.3,4,10.25,8.5,15.56,12.52,0,1,0,2,0,3.07-5.39-2.47-10.87-4.77-16.32-7.1-.43-.19-.81.42-.38.63,5.56,2.67,11.1,5.38,16.72,7.9.13,9,.28,17.94.4,26.9.21,15.66.55,31.31.88,47q-15.27-7.72-30.79-15c-.39-.18-.73.37-.34.59A322.83,322.83,0,0,0,119,245.43c.28,13,.54,26,.71,39a.62.62,0,0,0,1.23,0c-.18-16.6-.21-33.19-.26-49.78,5.38-1.33,25.68-10,30.5-12.4C151.66,222,151.31,221.17,150.79,221.37Z" style="fill:#37474f"></path><path d="M456.43,259.48c-1.86,1.86-23.49,2.69-31.35,2.69s-29.49-.83-31.35-2.69,24.34-145.6,31.35-145.6S458.28,257.63,456.43,259.48Z" style="fill:#455a64"></path><path d="M456.86,222.85c-5.34,2-25.14,10.1-29.41,12.45,0-.9,0-1.8,0-2.7,4.77-2.81,9.56-5.59,14.35-8.38,5.14-3,10.66-5.66,15.45-9.18.24-.17.11-.65-.22-.52-5.28,2.2-10.18,5.46-15.11,8.35s-9.68,5.8-14.48,8.76q0-10.33-.08-20.67A163.54,163.54,0,0,0,449.9,199.5c.25-.15.09-.6-.2-.48a164.45,164.45,0,0,0-22.36,11c0-3.58,0-7.17-.08-10.75-.19-18.44-.23-36.91-.7-55.35,4.69-2.37,9.53-4.46,14.22-6.84.31-.16.09-.69-.24-.57-4.76,1.86-9.35,4.07-14,6.12-.25-9.52-.61-19-1.19-28.53a.25.25,0,0,0-.49,0c-.66,17.66-.61,35.35-.39,53-4.86-3.89-10-7.32-15-11.08-.19-.15-.38.18-.19.32,5.17,3.94,10,8.3,15.2,12.22,0,1,0,2,0,3-5.27-2.41-10.62-4.65-15.95-6.94-.42-.17-.79.42-.36.63,5.43,2.6,10.83,5.25,16.33,7.71q.2,13.14.39,26.27c.2,15.3.53,30.59.86,45.88q-14.92-7.54-30.07-14.69c-.39-.18-.72.36-.34.58a314.57,314.57,0,0,0,30.43,15.29c.27,12.71.54,25.41.7,38.12a.6.6,0,0,0,1.2,0c-.18-16.21-.2-32.41-.25-48.62,5.25-1.3,25.08-9.79,29.78-12.11C457.72,223.5,457.38,222.66,456.86,222.85Z" style="fill:#37474f"></path><path d="M295.13,257.56c-2,2-25.25,2.88-33.71,2.88s-31.71-.89-33.71-2.88S253.88,101,261.42,101,297.13,255.56,295.13,257.56Z" style="fill:#37474f"></path><path d="M295.6,218.16c-5.75,2.2-27,10.86-31.63,13.39,0-1,0-1.94,0-2.9,5.13-3,10.29-6,15.43-9,5.53-3.22,11.47-6.09,16.62-9.88.25-.18.11-.7-.24-.55-5.68,2.36-10.95,5.87-16.25,9s-10.41,6.23-15.57,9.41q0-11.1-.09-22.22a176.58,176.58,0,0,0,24.26-12.33c.26-.16.09-.65-.22-.52a177.63,177.63,0,0,0-24,11.85c0-3.85,0-7.7-.08-11.55-.21-19.84-.25-39.69-.76-59.53,5.05-2.55,10.25-4.79,15.29-7.35.33-.17.1-.75-.25-.61-5.12,2-10.05,4.37-15.08,6.58-.27-10.24-.66-20.47-1.28-30.69a.27.27,0,0,0-.53,0c-.71,19-.65,38-.41,57-5.23-4.18-10.8-7.87-16.13-11.91-.2-.16-.4.19-.2.34,5.56,4.23,10.77,8.93,16.35,13.15,0,1.07,0,2.14,0,3.22-5.67-2.59-11.42-5-17.15-7.46-.45-.19-.85.45-.39.67,5.83,2.8,11.65,5.65,17.56,8.29.13,9.42.29,18.84.42,28.26.21,16.45.57,32.89.92,49.33q-16.05-8.11-32.34-15.79c-.41-.19-.77.39-.36.62a338.05,338.05,0,0,0,32.73,16.44c.29,13.67.57,27.33.75,41a.65.65,0,0,0,1.29,0c-.19-17.43-.22-34.86-.27-52.29,5.65-1.39,27-10.53,32-13C296.52,218.86,296.15,218,295.6,218.16Z" style="fill:#455a64"></path><path d="M41,265.83c1.39,1.4,17.65,2,23.56,2s22.16-.62,23.56-2S69.78,156.4,64.51,156.4,39.55,264.44,41,265.83Z" style="fill:#37474f"></path><path d="M40.62,238.3c4,1.54,18.89,7.59,22.11,9.36,0-.68,0-1.35,0-2-3.59-2.11-7.19-4.2-10.79-6.3-3.86-2.24-8-4.25-11.61-6.9-.18-.13-.08-.49.16-.39,4,1.66,7.66,4.11,11.36,6.28s7.27,4.35,10.88,6.58q0-7.77.06-15.53a123.8,123.8,0,0,1-16.95-8.62c-.18-.11-.06-.45.15-.36a125.38,125.38,0,0,1,16.81,8.28c0-2.69,0-5.38.06-8.07.15-13.87.17-27.74.53-41.61-3.53-1.78-7.16-3.35-10.69-5.14-.23-.11-.07-.52.18-.42,3.58,1.39,7,3,10.53,4.6.19-7.16.47-14.31.9-21.45a.19.19,0,0,1,.37,0c.5,13.28.46,26.57.29,39.86,3.65-2.91,7.55-5.49,11.27-8.32.14-.11.28.13.14.24-3.89,3-7.53,6.24-11.43,9.19,0,.75,0,1.5,0,2.25,4-1.81,8-3.5,12-5.21.32-.14.6.31.28.46-4.08,2-8.15,3.95-12.28,5.8-.09,6.58-.2,13.17-.29,19.75-.15,11.49-.4,23-.65,34.48q11.22-5.69,22.61-11c.28-.14.54.27.25.43A235.07,235.07,0,0,1,64,256c-.2,9.55-.4,19.1-.52,28.65a.45.45,0,0,1-.9,0c.13-12.18.15-24.36.19-36.54-3.95-1-18.85-7.35-22.39-9.1C40,238.79,40.23,238.16,40.62,238.3Z" style="fill:#455a64"></path><path d="M361.71,265.83c1.39,1.4,17.65,2,23.56,2s22.16-.62,23.56-2S390.54,156.4,385.27,156.4,360.31,264.44,361.71,265.83Z" style="fill:#37474f"></path><path d="M361.38,238.3c4,1.54,18.89,7.59,22.11,9.36,0-.68,0-1.35,0-2-3.59-2.11-7.19-4.2-10.79-6.3-3.86-2.24-8-4.25-11.61-6.9-.18-.13-.08-.49.16-.39,4,1.66,7.66,4.11,11.36,6.28s7.27,4.35,10.88,6.58q0-7.77.06-15.53a123.8,123.8,0,0,1-16.95-8.62c-.18-.11-.06-.45.15-.36a125.38,125.38,0,0,1,16.81,8.28c0-2.69,0-5.38.06-8.07.15-13.87.17-27.74.53-41.61-3.53-1.78-7.16-3.35-10.69-5.14-.23-.11-.07-.52.18-.42,3.58,1.39,7,3,10.53,4.6.19-7.16.47-14.31.9-21.45a.19.19,0,0,1,.37,0c.5,13.28.46,26.57.29,39.86,3.65-2.91,7.55-5.49,11.27-8.32.14-.11.28.13.14.24-3.89,3-7.53,6.24-11.43,9.19,0,.75,0,1.5,0,2.25,4-1.81,8-3.5,12-5.21.32-.14.6.31.28.46-4.08,2-8.15,3.95-12.28,5.8-.09,6.58-.2,13.17-.29,19.75-.15,11.49-.4,23-.65,34.48q11.22-5.69,22.61-11c.28-.14.54.27.25.43A235.07,235.07,0,0,1,384.72,256c-.2,9.55-.4,19.1-.52,28.65a.45.45,0,0,1-.9,0c.13-12.18.15-24.36.19-36.54-3.95-1-18.85-7.35-22.39-9.1C360.74,238.79,361,238.16,361.38,238.3Z" style="fill:#455a64"></path><path d="M197.63,265.83c1.39,1.4,17.65,2,23.56,2s22.16-.62,23.56-2S226.46,156.4,221.19,156.4,196.23,264.44,197.63,265.83Z" style="fill:#455a64"></path><path d="M197.3,238.3c4,1.54,18.89,7.59,22.11,9.36v-2c-3.58-2.11-7.19-4.2-10.78-6.3-3.87-2.24-8-4.25-11.62-6.9-.17-.13-.07-.49.17-.39,4,1.66,7.66,4.11,11.36,6.28s7.27,4.35,10.88,6.58q0-7.77.06-15.53a123.23,123.23,0,0,1-16.95-8.62c-.19-.11-.06-.45.15-.36a125.38,125.38,0,0,1,16.81,8.28c0-2.69,0-5.38.06-8.07.14-13.87.17-27.74.52-41.61-3.52-1.78-7.16-3.35-10.68-5.14-.23-.11-.07-.52.18-.42,3.58,1.39,7,3,10.53,4.6.19-7.16.47-14.31.9-21.45a.19.19,0,0,1,.37,0c.5,13.28.45,26.57.29,39.86,3.65-2.91,7.55-5.49,11.27-8.32.14-.11.28.13.14.24-3.89,3-7.53,6.24-11.43,9.19,0,.75,0,1.5,0,2.25,4-1.81,8-3.5,12-5.21.32-.14.59.31.28.46-4.08,2-8.15,3.95-12.28,5.8-.09,6.58-.21,13.17-.29,19.75-.15,11.49-.4,23-.65,34.48q11.22-5.69,22.6-11c.29-.14.54.27.26.43A235.07,235.07,0,0,1,220.64,256c-.2,9.55-.4,19.1-.52,28.65a.45.45,0,0,1-.9,0c.13-12.18.15-24.36.18-36.54-3.94-1-18.84-7.35-22.38-9.1C196.66,238.79,196.91,238.16,197.3,238.3Z" style="fill:#37474f"></path></g><g id="freepik--Plants--inject-135"><path d="M427,256.29a46.38,46.38,0,0,1,8.28,13.44,26.66,26.66,0,0,1,1.38,8.08,32.23,32.23,0,0,1-.66,8.82c-.08.36-.69.29-.66-.09a76.5,76.5,0,0,0,.33-8.29,27.64,27.64,0,0,0-1.19-8.3A56.35,56.35,0,0,0,427,256.32S427,256.27,427,256.29Z" style="fill:#455a64"></path><path d="M433.74,279.94a24.49,24.49,0,0,1,1.07-6.18c1.24-3.78,2.71-7.65,5.35-10.69.07-.09.23,0,.16.13-2.26,3.32-3.39,7.22-4.57,11a28.45,28.45,0,0,0-1,6.16,40.36,40.36,0,0,1-.68,6.5c-.05.22-.44.25-.47,0A34.27,34.27,0,0,1,433.74,279.94Z" style="fill:#37474f"></path><path d="M422.92,264a33.32,33.32,0,0,1,9.78,8.8c1.37,1.85,1.81,4.15,2.28,6.36a36.12,36.12,0,0,1,.9,7.53c0,.44-.72.57-.79.11-.33-2.25-.6-4.5-1-6.74s-.69-4.81-2-6.72a38.61,38.61,0,0,0-9.32-9.16A.11.11,0,1,1,422.92,264Z" style="fill:#455a64"></path><path d="M378,303.7c-.22,1.8-.56,3.58-.93,5.35-.2,1-.42,2-.62,3a7.25,7.25,0,0,0-.26,3.36h0a.86.86,0,0,1,0,.16v0a.13.13,0,0,1-.23-.05.19.19,0,0,1,0-.07l0,0a4.6,4.6,0,0,1-.39-.94,23.26,23.26,0,0,1-.89-2.59,22.7,22.7,0,0,1-.87-5.55,18.62,18.62,0,0,1,.52-5c.32-1.31.77-3.25,1.75-4.25s1.61.54,1.87,1.27A12.06,12.06,0,0,1,378,303.7Z" style="fill:#478CBF"></path><path d="M376.36,299.89c-.65,0-1.13,2.12-1.36,3a18.19,18.19,0,0,0-.56,4.41,23.45,23.45,0,0,0,1.36,7.83c0,.1.06.21.1.31l0,0s0,.05,0,.07a.13.13,0,0,0,.23,0c0-.22-.07-.43-.1-.65s0-.4-.06-.6a31.28,31.28,0,0,1,.4-6.48C376.73,305.36,377.23,299.89,376.36,299.89Zm-.47,14.88c0,.3.08.58.14.87-.07-.21-.14-.42-.2-.63a26.14,26.14,0,0,1-1.24-6.91,18.68,18.68,0,0,1,.29-4,17.71,17.71,0,0,1,.51-2.06c.09-.29.57-2.06,1-2s.35,1.66.36,1.69c0,.32,0,.64,0,1,0,.66-.05,1.32-.11,2-.12,1.43-.33,2.85-.5,4.27A24.7,24.7,0,0,0,375.89,314.77Z" style="fill:#fff"></path><path d="M388.29,308.67a17.1,17.1,0,0,1-5.32,5.68c-1.12.83-2.28,1.6-3.42,2.4a18.07,18.07,0,0,0-3,2.27l-.11.12a5.52,5.52,0,0,0-.61.85l-.06,0a.49.49,0,0,1,0,.11s0,0,0,0,0-.08,0-.12h0a.07.07,0,0,1,0-.09l0,0a.45.45,0,0,1,0-.11c.34-2.75,2.26-5.52,3.89-7.63a14.6,14.6,0,0,1,6.13-4.95c.63-.24,2.06-.91,2.7-.39S388.55,308.17,388.29,308.67Z" style="fill:#478CBF"></path><path d="M386.44,308.68c-.58-.57-2.26.84-2.68,1.17a27.11,27.11,0,0,0-3.48,3.38,25.05,25.05,0,0,0-4.45,6.44h0l-.06.08s0,.08,0,.11a.05.05,0,0,1,0,0,.07.07,0,0,0,0,.09l.09-.09c.2-.26.43-.51.65-.76l.11-.12a55.78,55.78,0,0,1,5.21-4.6,25.7,25.7,0,0,0,3.47-3.37C385.53,310.74,386.92,309.16,386.44,308.68Zm-.53,1.25c-1.42,2.36-3.88,4.08-6,5.8a28.19,28.19,0,0,0-4,3.76,26.89,26.89,0,0,1,4.11-5.79,35.34,35.34,0,0,1,2.83-2.91,14.16,14.16,0,0,1,1.72-1.37,5.18,5.18,0,0,1,1.16-.63C386.59,308.56,386.15,309.53,385.91,309.93Z" style="fill:#fff"></path><path d="M375.49,325.58a.19.19,0,0,1-.13.07l0,0a.07.07,0,0,1,0,.06s0,0-.06,0a24,24,0,0,1-5.48-8,12.73,12.73,0,0,1-.79-3.95c0-.93-.07-2.78.72-3.46,1.59-1.35,3,4.39,3.25,5.25.39,1.58.65,3.19,1,4.77s.92,3.44,1.44,5.13A.17.17,0,0,1,375.49,325.58Z" style="fill:#478CBF"></path><path d="M375.49,325.58c-.09-.15-.17-.3-.25-.45a26.73,26.73,0,0,1-2.87-7.7,25.28,25.28,0,0,0-1.05-4c-.13-.31-.53-1.54-1.06-.92-.27.32,0,2.64.07,3.24a16.68,16.68,0,0,0,1.29,3.94,28.22,28.22,0,0,0,3.64,5.92l.13.16a.07.07,0,0,0,0-.06s0,0,0,0A.16.16,0,0,0,375.49,325.58Zm-3.23-4.94a19.17,19.17,0,0,1-1.53-3.82,14.35,14.35,0,0,1-.33-1.61,7.81,7.81,0,0,1-.11-1.28c0-1.05.09-1.32.27-1.36s.26.1.56.72a6.49,6.49,0,0,1,.45,1.28c.16.61.31,1.24.44,1.86.27,1.25.53,2.51.89,3.73a20.39,20.39,0,0,0,2.21,5A31.11,31.11,0,0,1,372.26,320.64Z" style="fill:#fff"></path><path d="M382.62,320.08a7.75,7.75,0,0,1-1.46,3c-1.32,1.82-3,3.34-4.45,5.06l-.63.79s-.18.41-.18.38,0-.15.07-.4h0a31.9,31.9,0,0,1,1.94-6.72,16.09,16.09,0,0,1,2.11-3.3c.4-.46,1.36-1.46,2.09-1.24S382.73,319.5,382.62,320.08Z" style="fill:#478CBF"></path><path d="M381.45,319.34c-.78-.48-2.77,3.08-3,3.53a22.87,22.87,0,0,0-2.27,5.43c-.06.21-.11.42-.17.64s-.07.39-.07.4.16-.35.18-.38a1.34,1.34,0,0,0,.11-.14l.52-.65c.87-1.29,1.75-2.57,2.59-3.89a21.09,21.09,0,0,0,1.61-2.95C381,321.09,381.78,319.55,381.45,319.34Zm-.23,1c-1.09,3.09-3.34,5.53-5.05,8.28l-.08.13a2.17,2.17,0,0,1,.07-.24A25.58,25.58,0,0,1,378,324a23.35,23.35,0,0,1,1.52-2.54,12.46,12.46,0,0,1,1-1.33c.15-.17.61-.64.76-.56S381.3,320.14,381.22,320.34Z" style="fill:#fff"></path><path d="M390.38,294.54c-2.3,5.27-8.32,7.73-10.93,12.81v0c-.08.15-.16.31-.23.47a.12.12,0,0,1-.18,0s0-.05,0-.09l.06-.12a27.45,27.45,0,0,1,3.22-9.23,13.9,13.9,0,0,1,5.63-6c.61-.32,1.81-1,2.5-.46S390.66,293.89,390.38,294.54Z" style="fill:#478CBF"></path><path d="M388.31,294.77c-.29-.22-.73,0-1,.17a9.4,9.4,0,0,0-1.74,1.19,14.59,14.59,0,0,0-2.77,3.3,30,30,0,0,0-3.28,6.64c-.17.53-.33,1.06-.45,1.61,0,.06,0,.13-.05.2a.12.12,0,0,0,.18,0c.06-.16.14-.3.21-.46l0,0a17.9,17.9,0,0,1,1.63-3,43,43,0,0,1,3.44-4.07C385,299.75,389.32,295.5,388.31,294.77Zm-.37,1.21a19.17,19.17,0,0,1-2.72,3.31c-1,1.06-1.92,2.11-2.85,3.19a19.59,19.59,0,0,0-2,2.75,15.7,15.7,0,0,0-1.26,2.53,22.81,22.81,0,0,1,.9-2.64l0,0a39.12,39.12,0,0,1,2.22-4.44l0-.05a18.1,18.1,0,0,1,2.54-3.55,10.19,10.19,0,0,1,1.81-1.53c.75-.49,1.41-.81,1.6-.57S388.15,295.62,387.94,296Z" style="fill:#fff"></path><path d="M382.36,300.72c-.69,1.49-1.35,3-2,4.51-.31.7-.61,1.41-.91,2.12l0,0c-.1.26-.22.52-.33.77a47.88,47.88,0,0,0-2.69,7.13,21.71,21.71,0,0,0-.55,4c0,.14,0,.28,0,.42h0v.23a.49.49,0,0,0,0,.12c0,1.16,0,2.32,0,3.45,0,1.57.16,3.13.31,4.69a.66.66,0,0,0,0,.14,1.49,1.49,0,0,1,0,.21v.11c0,.07,0,.13,0,.2.05.5.09,1,.14,1.51h-.48a30,30,0,0,1-.58-4.65.28.28,0,0,1,0-.09c0-.15,0-.31,0-.46s0-.37,0-.56c0-.45,0-.89,0-1.34a33.17,33.17,0,0,1,.56-7.77,1.6,1.6,0,0,1,0-.21.29.29,0,0,1,0-.09.8.8,0,0,1,0-.15l.06-.24.12-.42,0-.12a49.81,49.81,0,0,1,2.65-6.4l.53-1.14.3-.62c.16-.31.32-.63.47-.95l0,0c.73-1.49,1.5-3,2.22-4.44C382.28,300.59,382.39,300.65,382.36,300.72Z" style="fill:#478CBF"></path><path d="M415.67,371.75c6.76,7.95,12.78,16.89,16.47,26.73,1.92,5.11,2.5,10.65,2.76,16.07a65.09,65.09,0,0,1-1.31,17.56c-.17.72-1.38.58-1.32-.18a154.27,154.27,0,0,0,.66-16.51c-.18-5.46-.53-11.32-2.37-16.51-3.39-9.57-9.06-18.89-15-27.1C415.56,371.76,415.63,371.7,415.67,371.75Z" style="fill:#455a64"></path><path d="M429,418.79a49.79,49.79,0,0,1,2.13-12.29c2.48-7.52,5.4-15.23,10.65-21.27.15-.17.46.06.32.25-4.5,6.62-6.74,14.37-9.09,21.93a55.92,55.92,0,0,0-1.92,12.27c-.35,4.22-.32,8.81-1.35,12.92-.11.44-.88.5-.95,0C428.18,428.15,428.7,423.26,429,418.79Z" style="fill:#37474f"></path><path d="M428.27,418.79a49.33,49.33,0,0,0-2.13-12.29c-2.47-7.52-5.39-15.23-10.65-21.27-.15-.17-.45.06-.32.25,4.5,6.62,6.75,14.37,9.09,21.93a56.54,56.54,0,0,1,1.93,12.27c.34,4.22.32,8.81,1.35,12.92.11.44.88.5.95,0C429.1,428.15,428.58,423.26,428.27,418.79Z" style="fill:#455a64"></path><path d="M407.49,387A66.21,66.21,0,0,1,427,404.53c2.73,3.68,3.6,8.25,4.54,12.65a71.41,71.41,0,0,1,1.79,15c0,.87-1.43,1.12-1.57.21-.66-4.47-1.2-8.95-2-13.4s-1.37-9.58-3.91-13.38c-4.84-7.23-11.64-13.06-18.56-18.21C407.06,387.23,407.24,386.87,407.49,387Z" style="fill:#455a64"></path><path d="M96,273.87c-6.25,7.35-11.82,15.62-15.23,24.71-1.78,4.73-2.31,9.85-2.55,14.87a59.74,59.74,0,0,0,1.21,16.23.62.62,0,0,0,1.22-.17A141.37,141.37,0,0,1,80,314.25c.17-5.05.49-10.47,2.19-15.26,3.13-8.85,8.38-17.48,13.84-25.06C96.05,273.88,96,273.83,96,273.87Z" style="fill:#455a64"></path><path d="M83.61,317.37a45.55,45.55,0,0,0-2-11.36c-2.29-7-5-14.09-9.85-19.67-.13-.16-.41.05-.29.23,4.16,6.12,6.23,13.28,8.41,20.28a51.64,51.64,0,0,1,1.77,11.33c.32,3.91.3,8.15,1.25,12,.11.4.82.46.88,0C84.38,326,83.9,321.5,83.61,317.37Z" style="fill:#37474f"></path><path d="M103.51,288a61.33,61.33,0,0,0-18,16.19c-2.52,3.4-3.33,7.63-4.2,11.7a66.63,66.63,0,0,0-1.65,13.86c0,.8,1.32,1,1.45.19.61-4.13,1.11-8.27,1.82-12.39s1.27-8.86,3.62-12.37c4.47-6.69,10.76-12.08,17.15-16.84A.2.2,0,0,0,103.51,288Z" style="fill:#455a64"></path><path d="M58.39,306.82c-2.5.09-5.28.23-7.35-1.39-1.91-1.49-3.61-3.72-3.36-6.28.07-.73.24-1.18,1-.87,1.19.48,2.11,1.79,2.93,2.71a25.12,25.12,0,0,0,3.47,3.29c.89.68,1.84,1.27,2.75,1.93l.34.25.13.1h.07a.11.11,0,0,1,.1.05l0,0A.13.13,0,0,1,58.39,306.82Z" style="fill:#478CBF"></path><path d="M58.51,306.65c-2.19,0-4.56.07-6.32-1.42a10.16,10.16,0,0,1-2-2.48c-.25-.41-1-1.64-.7-2.13.57-.89,3.19,2.72,3.55,3.07a10.73,10.73,0,0,0,4.85,2.52l.34.25a12.11,12.11,0,0,1-3.64-1.4c-1.56-.93-2.43-2.3-3.64-3.59-.27-.27-1.06-1.21-1.36-.63-.2.39.54,1.59.69,1.85a10.44,10.44,0,0,0,1.93,2.36c1.75,1.52,4.11,1.47,6.32,1.56Z" style="fill:#fff"></path><path d="M59.77,308.34c0,.1,0,.19-.06.29h0s0,0,0,.05a.1.1,0,0,1-.13-.05s0,0,0-.06l0,0,0-.08h0v0c-.44-1.65-.61-3.37-1.08-5s-1-3.13-1.32-4.74c-.2-1-.91-6.11,1.34-5.47,1,.28,1.68,1.72,2,2.58a10.54,10.54,0,0,1,.83,3.66C61.53,302.54,60.39,305.36,59.77,308.34Z" style="fill:#478CBF"></path><path d="M60.48,302a11.88,11.88,0,0,0-.36-3.46c-.1-.39-.58-2.26-1.22-2.22-.41,0-.48.84-.51,1.11a10.57,10.57,0,0,0,.44,3.39,47.26,47.26,0,0,1,.83,6.81c0,.14,0,.29-.06.43s0,.24-.05.36,0,.08,0,.12,0,.07,0,.1a.11.11,0,0,0,.14.05l0-.28a1.77,1.77,0,0,1,0,.23h0c0-.08,0-.16,0-.23a.13.13,0,0,0,0-.06V308A52.11,52.11,0,0,0,60.48,302Zm-.75,5.14q-.1-2-.39-4c-.15-1.07-.35-2.12-.57-3.18a10.89,10.89,0,0,1-.29-1.8c0-.46.05-2.18.93-1.12a6.9,6.9,0,0,1,.87,3.37,16.69,16.69,0,0,1-.06,3.16C60.1,304.77,59.9,306,59.73,307.14Z" style="fill:#fff"></path><path d="M61.11,315.19h0l-.09,0c-2.29-.12-5.33.09-7.23-1.42-1.4-1.11-2.78-3.32-2.34-5.19.51-2.11,3.36.42,4.11,1a69.25,69.25,0,0,1,5.6,5.45s0,0,0,0h0S61.16,315.18,61.11,315.19Z" style="fill:#478CBF"></path><path d="M61.19,315.13l-.4-.25q-2.25-1.41-4.37-3c-.35-.28-2.92-2.56-3.31-1.75-.23.5.62,1.51.89,1.85a6.88,6.88,0,0,0,1.73,1.54c1.52.95,3.37,1.16,5.09,1.61l.24.07,0,0h0S61.21,315.16,61.19,315.13Zm-4.52-1.3a7.27,7.27,0,0,1-2-1.33c-.38-.37-1.73-1.73-1.37-2.3.19-.29.35-.14.71,0a3.77,3.77,0,0,1,.48.28,13,13,0,0,1,1.09.83c.63.5,1.27,1,1.92,1.46,1.06.77,2.15,1.5,3.26,2.19A34,34,0,0,1,56.67,313.83Z" style="fill:#fff"></path><path d="M65.28,310.49a13.46,13.46,0,0,1-3.91,6.83s0,0,0,0a.09.09,0,0,1-.11,0,.11.11,0,0,1,0-.14l.12-.11c.37-3.11.79-6.19,1.11-9.3.07-.74.65-5.41,2.08-4.65.89.47,1,2.39,1,3.25A13.33,13.33,0,0,1,65.28,310.49Z" style="fill:#478CBF"></path><path d="M64.45,306.33c-.08-.26-.21-.53-.5-.34-.56.34-.78,2.54-.87,3.15-.39,2.5-1,4.91-1.58,7.36l-.15.62-.14.19a.1.1,0,0,0,.11,0,.14.14,0,0,0,0-.06c.07-.08.13-.17.19-.25h0a16.1,16.1,0,0,0,2.26-4.4,15.44,15.44,0,0,0,.67-3.07A9,9,0,0,0,64.45,306.33Zm-2.93,10.54-.08.12c0-.09.05-.17.07-.25a44.71,44.71,0,0,0,1.4-5.7c.17-1,.27-2,.47-2.94.09-.41.29-1.58.63-1.77s.33.27.37.53,0,.53,0,.71A15.82,15.82,0,0,1,61.52,316.87Z" style="fill:#fff"></path><path d="M61.75,324h-.46l0-1.21q-.07-2.43-.21-4.86c-.06-.93-.12-1.84-.22-2.75a.31.31,0,0,1,0-.1l0-.22a2,2,0,0,0,0-.24,19.6,19.6,0,0,0-1.56-6c-.3-.63-.61-1.25-1-1.86l-.09-.17,0,0a1.62,1.62,0,0,0-.1-.18l-.08-.14c-1.05-1.85-2.26-3.63-3.41-5.42l-1-1.54a.41.41,0,0,1-.05-.09l-.08-.12c-1.44-2.27-2.85-4.56-4.35-6.79-.06-.08.08-.15.13-.07,1,1.48,2.06,2.93,3.1,4.4l.41.58.82,1.16c.54.77,1.07,1.55,1.6,2.33a66.8,66.8,0,0,1,4.2,6.8l.26.54a3.49,3.49,0,0,1,.15.34l.18.39A21.29,21.29,0,0,1,61.47,316l0,.52c0,.08,0,.16,0,.24s0,.08,0,.13,0,.1,0,.16h0v.12c0,.15,0,.29,0,.44.07,1.63.11,3.25.15,4.87C61.71,323,61.73,323.5,61.75,324Z" style="fill:#478CBF"></path><path d="M48.12,294.64c-1.25-1.68-2.85-5.15-1-6.95a2,2,0,0,1,2.61-.2,5.72,5.72,0,0,1,1.72,3.14c.85,2.94,1.41,5.94,2.46,8.82,0,0,.09.24.12.31s-.08.08-.1,0-.07-.18-.1-.28C51.83,298.06,49.6,296.63,48.12,294.64Z" style="fill:#478CBF"></path><path d="M53.92,299.46l0,0a20.79,20.79,0,0,1-1.17-2.18,42.16,42.16,0,0,1-1.8-4.82c-.2-.63-1.1-3.71-2.2-2.48A2.75,2.75,0,0,0,48.4,292a7.65,7.65,0,0,0,1,2.89,14.09,14.09,0,0,0,4.15,4.34l.22.16,0,.08,0,0,0,0a.07.07,0,0,0,.1,0A.06.06,0,0,0,53.92,299.46Zm-.49-.35a16.37,16.37,0,0,1-3.52-3.53,8.7,8.7,0,0,1-1.14-2.33,7.23,7.23,0,0,1-.25-1.14,5,5,0,0,1-.05-.86c0-.64.28-1.33.66-1.4s.62.19.92.72a4.18,4.18,0,0,1,.28.56c.2.48.36,1,.52,1.46.26.82.52,1.63.81,2.44.2.54.41,1.09.65,1.62a20.28,20.28,0,0,0,1.37,2.66A2.43,2.43,0,0,1,53.43,299.11Z" style="fill:#fff"></path><path d="M70.5,309.68c-.13,1-.32,2-.52,3-.12.56-.24,1.13-.35,1.69a4.06,4.06,0,0,0-.15,1.89h0v.09h0a.08.08,0,0,1-.13,0l0,0v0a2.57,2.57,0,0,1-.21-.52c-.2-.48-.36-1-.51-1.46a13.1,13.1,0,0,1-.49-3.12,10.55,10.55,0,0,1,.3-2.8,5.49,5.49,0,0,1,1-2.39c.5-.51.91.3,1,.72A6.72,6.72,0,0,1,70.5,309.68Z" style="fill:#478CBF"></path><path d="M69.6,307.54c-.37,0-.64,1.19-.77,1.7a10.35,10.35,0,0,0-.32,2.48,13.23,13.23,0,0,0,.77,4.4.84.84,0,0,0,0,.17v0l0,0c0,.06.1.06.13,0a2.38,2.38,0,0,1-.06-.37c0-.11,0-.22,0-.33a17.86,17.86,0,0,1,.22-3.65C69.8,310.61,70.08,307.54,69.6,307.54Zm-.27,8.36c0,.17,0,.33.07.49,0-.12-.07-.23-.11-.35a15.06,15.06,0,0,1-.69-3.89,11.07,11.07,0,0,1,.16-2.22,9.37,9.37,0,0,1,.29-1.16c0-.16.32-1.15.55-1.1s.19.93.19.95c0,.18,0,.36,0,.54,0,.37,0,.74-.06,1.11-.07.8-.18,1.6-.28,2.39A14.08,14.08,0,0,0,69.33,315.9Z" style="fill:#fff"></path><path d="M76.3,312.47a9.74,9.74,0,0,1-3,3.2c-.63.46-1.28.89-1.92,1.34a10.59,10.59,0,0,0-1.67,1.28l-.06.07a2.94,2.94,0,0,0-.34.47s0,0,0,0a.14.14,0,0,1,0,.06s0,0,0,0v-.07h0a0,0,0,0,1,0,0s0,0,0,0a.13.13,0,0,0,0-.06,9.79,9.79,0,0,1,2.18-4.29,8.29,8.29,0,0,1,3.45-2.78c.35-.13,1.16-.51,1.52-.22S76.44,312.19,76.3,312.47Z" style="fill:#478CBF"></path><path d="M75.25,312.48c-.32-.32-1.26.47-1.5.66a15.29,15.29,0,0,0-2,1.9,14.14,14.14,0,0,0-2.5,3.61h0l0,0s0,0,0,.06,0,0,0,0,0,0,0,0l0-.06.37-.42.06-.07a31.25,31.25,0,0,1,2.93-2.58,15.22,15.22,0,0,0,1.95-1.9C74.75,313.63,75.52,312.75,75.25,312.48Zm-.29.7a14.21,14.21,0,0,1-3.35,3.26,15.94,15.94,0,0,0-2.23,2.11,15.21,15.21,0,0,1,2.31-3.25,17.48,17.48,0,0,1,1.59-1.63,8,8,0,0,1,1-.78,3.78,3.78,0,0,1,.66-.35C75.34,312.41,75.1,313,75,313.18Z" style="fill:#fff"></path><path d="M69.1,322a.08.08,0,0,1-.07,0l0,0a0,0,0,0,1,0,0h0a13.3,13.3,0,0,1-3.07-4.5,6.76,6.76,0,0,1-.45-2.22c0-.52,0-1.56.4-1.94.9-.76,1.71,2.46,1.83,2.95.22.89.37,1.79.57,2.68s.52,1.93.81,2.88A.06.06,0,0,1,69.1,322Z" style="fill:#478CBF"></path><path d="M69.1,322l-.14-.24a15.2,15.2,0,0,1-1.61-4.34,13.55,13.55,0,0,0-.59-2.25c-.07-.18-.3-.87-.59-.52a5.1,5.1,0,0,0,0,1.82,9.4,9.4,0,0,0,.73,2.21A15.23,15.23,0,0,0,69,322l.07.09a0,0,0,0,0,0,0s0,0,0,0A.07.07,0,0,0,69.1,322Zm-1.81-2.77a10.85,10.85,0,0,1-.86-2.15,8.43,8.43,0,0,1-.19-.9,5.83,5.83,0,0,1-.06-.72c0-.59,0-.74.15-.76s.15.05.32.4a3.61,3.61,0,0,1,.25.72c.09.34.17.69.25,1,.15.7.29,1.4.5,2.09a11.81,11.81,0,0,0,1.24,2.82A18.18,18.18,0,0,1,67.29,319.2Z" style="fill:#fff"></path><path d="M73.11,318.88a4.38,4.38,0,0,1-.82,1.71c-.74,1-1.69,1.87-2.5,2.84-.12.15-.24.29-.35.45s-.11.23-.11.21,0-.09,0-.22h0a19,19,0,0,1,1.09-3.77,8.72,8.72,0,0,1,1.19-1.85c.23-.26.77-.83,1.17-.7S73.17,318.56,73.11,318.88Z" style="fill:#478CBF"></path><path d="M72.45,318.47c-.43-.27-1.55,1.73-1.7,2a12.49,12.49,0,0,0-1.28,3c0,.12-.07.24-.1.37s0,.21,0,.22.1-.2.11-.21l.06-.08c.09-.13.19-.25.29-.37.49-.72,1-1.44,1.46-2.18a12.12,12.12,0,0,0,.9-1.66C72.21,319.45,72.64,318.59,72.45,318.47Zm-.12.56c-.62,1.74-1.88,3.11-2.84,4.65l0,.08s0-.09,0-.14a14.55,14.55,0,0,1,1-2.53,14.79,14.79,0,0,1,.86-1.44c.17-.24.34-.52.53-.74s.35-.36.44-.31S72.37,318.92,72.33,319Z" style="fill:#fff"></path><path d="M77.47,304.53c-1.29,3-4.68,4.35-6.14,7.2v0l-.13.26c0,.05-.07,0-.1,0a0,0,0,0,1,0,0l0-.07a15.46,15.46,0,0,1,1.81-5.18,7.86,7.86,0,0,1,3.16-3.37c.35-.17,1-.55,1.41-.26S77.63,304.17,77.47,304.53Z" style="fill:#478CBF"></path><path d="M76.31,304.66c-.17-.12-.41,0-.56.1a4.65,4.65,0,0,0-1,.67,7.91,7.91,0,0,0-1.56,1.85A16.39,16.39,0,0,0,71.38,311c-.1.3-.19.6-.26.9l0,.12s.08,0,.1,0l.12-.25,0,0a9.57,9.57,0,0,1,.92-1.69,22.06,22.06,0,0,1,1.93-2.29C74.44,307.46,76.88,305.07,76.31,304.66Zm-.21.68a10.9,10.9,0,0,1-1.53,1.86c-.53.6-1.08,1.19-1.6,1.8a10.17,10.17,0,0,0-1.13,1.54,8.56,8.56,0,0,0-.71,1.42,12.93,12.93,0,0,1,.51-1.48v0A20.69,20.69,0,0,1,72.9,308l0,0a10,10,0,0,1,1.42-2,5.6,5.6,0,0,1,1-.86c.42-.28.79-.46.9-.32S76.22,305.14,76.1,305.34Z" style="fill:#fff"></path><path d="M73,308c-.38.83-.75,1.68-1.12,2.53l-.51,1.19,0,0-.18.43a26.47,26.47,0,0,0-1.51,4,12,12,0,0,0-.31,2.23c0,.08,0,.16,0,.23h0v.19c0,.65,0,1.31,0,1.94,0,.88.09,1.76.17,2.64,0,0,0,.05,0,.07s0,.08,0,.12v.06a.49.49,0,0,0,0,.12c0,.28,0,.56.07.84H69.3A18.66,18.66,0,0,1,69,322V322a2.11,2.11,0,0,1,0-.25c0-.11,0-.21,0-.32s0-.5,0-.75a18.28,18.28,0,0,1,.31-4.37s0-.08,0-.12,0,0,0-.05,0-.05,0-.08l0-.14a1.55,1.55,0,0,1,.07-.23l0-.07a28.39,28.39,0,0,1,1.49-3.6l.3-.64.17-.35.26-.53v0c.41-.83.84-1.65,1.25-2.49C72.92,307.94,73,308,73,308Z" style="fill:#478CBF"></path></g><g id="freepik--Rocks--inject-135"><path d="M210.81,398.74H41.15s18.25-40.53,34.36-50.36,60.13-17.34,83.76-10.9S210.81,398.74,210.81,398.74Z" style="fill:#a6a6a6"></path><path d="M442.07,287.68H427.73s1.54-3.42,2.91-4.25a12,12,0,0,1,7.08-.92C439.71,283.05,442.07,287.68,442.07,287.68Z" style="fill:#a6a6a6"></path><path d="M360.61,332.65h22.17s-2.71-8-9.89-8.21S360.61,332.65,360.61,332.65Z" style="fill:#c7c7c7"></path><path d="M424.23,291.42h-7.15s.92-2.08,2-2.5a5.7,5.7,0,0,1,4.11,1A6.29,6.29,0,0,1,424.23,291.42Z" style="fill:#c7c7c7"></path><path d="M293.78,287.79H246.89s7.65-8.75,13.42-10.42,14.16-2.66,19-1.55S293.78,287.79,293.78,287.79Z" style="fill:#a6a6a6"></path><path d="M289.77,289.76H277.19s1.61-3.65,3.51-4.38,6.22.65,7.24,1.68A11.71,11.71,0,0,1,289.77,289.76Z" style="fill:#c7c7c7"></path><path d="M127.77,289.76h-17s2.18-4.95,4.76-5.94,8.41.89,9.8,2.28A15.76,15.76,0,0,1,127.77,289.76Z" style="fill:#c7c7c7"></path><path d="M458.85,440.9H403.58s6.76-19.89,24.66-20.45S458.85,440.9,458.85,440.9Z" style="fill:#c7c7c7"></path><path d="M48.17,329.21H80.64s-3.49-7.76-6.57-9.64-11.51-3.32-16-2.09S48.17,329.21,48.17,329.21Z" style="fill:#a6a6a6"></path><path d="M69.64,333H90.19s-2.51-7.4-9.17-7.6S69.64,333,69.64,333Z" style="fill:#c7c7c7"></path></g><g id="freepik--Character--inject-135"><path d="M403.46,424.89c-2.7,1-81.1,2.46-84.16.71-.34-.2-.25-3.66-1.4-12.61-.06-.42-1.85-2.08-4.64-4.43-10.48-8.78-35.12-27.31-35.12-27.31l39.13-34,37.91,37.27,9.86,9.69s32,17.29,35.2,19.58S406.16,423.85,403.46,424.89Z" style="fill:#ad6359"></path><path d="M403.46,424.89c-2.71,1-81.1,2.46-84.16.71-.34-.19-.24-3.65-1.4-12.61,0-.42-1.84-2.08-4.64-4.43-3.64-3.05-5.38-4.45-10.8-8.67L352.2,381.6l3,2.93,9.86,9.69s32,17.29,35.2,19.58S406.16,423.85,403.46,424.89Z" style="fill:#ebebeb"></path><path d="M408.86,426c-2.73.95-86.25,1.86-89.26,0-.7-.43-1.35-5.28-1.87-11.93-.07-.83-8.53-7.6-9.68-8.85L359.23,388l6.46,6.08s37.67,17.53,40.75,19.92S411.58,425,408.86,426Z" style="fill:#478CBF"></path><path d="M407.7,422.85c-13.12-.16-71.33.39-84.32,1.22-.1,0-.1.08,0,.09,13,.45,71.21-.54,84.32-1.09C408,423.06,408,422.86,407.7,422.85Z" style="fill:#263238"></path><path d="M369.87,394.6c-5.18-.91-11.48,0-15.38,3.68-.15.15.05.36.22.31a72.49,72.49,0,0,1,15.14-3.34A.33.33,0,0,0,369.87,394.6Z" style="fill:#263238"></path><path d="M373.62,396.8c-5.17-.9-11.48,0-15.38,3.69-.15.14.06.35.22.3a72.58,72.58,0,0,1,15.15-3.34A.33.33,0,0,0,373.62,396.8Z" style="fill:#263238"></path><path d="M377.37,399c-5.17-.9-11.48,0-15.38,3.69-.15.14.06.36.23.3a73,73,0,0,1,15.14-3.34A.33.33,0,0,0,377.37,399Z" style="fill:#263238"></path><path d="M381.13,401.2c-5.18-.9-11.48,0-15.38,3.69-.16.14.05.36.22.3a72.47,72.47,0,0,1,15.14-3.33A.33.33,0,0,0,381.13,401.2Z" style="fill:#263238"></path><path d="M379.26,382.55c-2.06-2.77-5.82-1.47-7.95.36a27.61,27.61,0,0,0-7.82,11.92c0,.11,0,.17.13.19a.63.63,0,0,0,.81.63c4.25-1.63,9-2.84,12.61-5.72C379.15,388.24,381.21,385.17,379.26,382.55Zm-8.9,9.32c-2.06.85-4.16,1.59-6.2,2.52a81.8,81.8,0,0,1,4.72-6.86,29.38,29.38,0,0,1,2.7-3c1.52-1.41,7.56-4.46,6.72,1.22C377.84,388.89,372.83,390.85,370.36,391.87Z" style="fill:#263238"></path><path d="M350.36,393.64c4.27,1.76,9.16,1.61,13.69,2a.64.64,0,0,0,.61-.84.14.14,0,0,0,.07-.21,27.62,27.62,0,0,0-10.82-9.28c-2.56-1.17-6.53-1.38-7.74,1.86C345,390.23,347.86,392.61,350.36,393.64ZM348,390c-2.38-5.21,4.27-4,6.12-3a29.58,29.58,0,0,1,3.43,2.12c2.29,1.59,4.32,3.48,6.43,5.28-2.21-.32-4.43-.46-6.66-.7C354.65,393.36,349.3,392.86,348,390Z" style="fill:#263238"></path><path d="M355.72,382.45l-48.36,25.06s-50.38-45.61-55-45.94S180,407.22,145.85,407.36c-35.34.15-37.12-36.88-37.12-36.88l51.55-11.84c37.16-18.31,75.87-51.21,101.18-48.14C289,313.84,355.72,382.45,355.72,382.45Z" style="fill:#263238"></path><path d="M343.9,376.07c-8.16,4-5.87,2.77-14,6.89-4,2-24,12.1-27.36,14.6a.09.09,0,0,0,.08.16c4-1.34,23.77-11.86,27.7-14,8.05-4.27,5.69-3.12,13.69-7.48A.13.13,0,1,0,343.9,376.07Z" style="fill:#37474f"></path><path d="M298.79,396c-9.45-8.33-40.43-35.47-41.68-36.48a17.57,17.57,0,0,0-3.23-2.42,3.41,3.41,0,0,0-3,.24c-1.43.67-2.84,1.41-4.26,2.1l-8.38,4.09c-10.83,5.29-21.6,10.71-32.52,15.83-10.5,4.92-18,9.54-29,13.33a165,165,0,0,1-33.64,8c-1.41.17-2.83.32-4.25.45-.1,0-.1.17,0,.16a135.24,135.24,0,0,0,33.1-6.16c10.87-3.34,18.24-7.67,28.56-12.42,10.69-4.92,21.23-10.18,31.77-15.42,5.56-2.77,11.11-5.56,16.69-8.29,1.27-.62,3.07-2,4.51-1.3a7.74,7.74,0,0,1,1.67,1.23l1.86,1.54c2.39,2,40.36,34.7,41.61,35.64C298.76,396.16,298.89,396,298.79,396Z" style="fill:#37474f"></path><path d="M108.63,370.48s-5.79,33.43,10.93,46.57,139.19,11.55,157.78,5.54,19.16-36-1.15-42.94C256.87,373,174.66,369.83,172.63,369c-.51-.2,7.29-4.88,7.26-5.16l-18.71-5.72Z" style="fill:#263238"></path><path d="M134,369.64c0-.14-.24-.1-.24,0a16.56,16.56,0,0,1-3.87,10.62c-2.84,3.28-7,5.12-10.84,7.05-.37.18-.09.75.29.64a33.72,33.72,0,0,0,6.71-2.89,16.37,16.37,0,0,0,5-4.2A14.44,14.44,0,0,0,134,369.64Z" style="fill:#37474f"></path><path d="M171.29,365.5c-.85-1.09-1.78-2.12-2.66-3.17-2.1-2.49-4.2-5-6.39-7.4-.21-.23-.62.1-.43.34,1.48,1.94,3.05,3.81,4.58,5.69.79,1,1.58,1.93,2.38,2.89a17.59,17.59,0,0,1,2.22,2.81c.57,1.07-.18,2-1.29,2.11a3.85,3.85,0,0,1-2.67-1,34.7,34.7,0,0,1-4.54-4.84c-.88-1-1.76-2-2.66-3s-2-2-2.91-3.07c-.06-.06-.18,0-.13.11.83,1.13,1.6,2.32,2.43,3.46s1.67,2.27,2.53,3.39,1.65,2.09,2.52,3.11a10.46,10.46,0,0,0,2.55,2.28c1.59.94,4.35,1.14,5.2-.91A2.91,2.91,0,0,0,171.29,365.5Z" style="fill:#37474f"></path><path d="M274.8,422.71c-6.4.12-12.8.49-19.2.62s-12.69.18-19,.12q-19.12-.18-38.22-1.49c-12.85-.89-26.71-2.17-39.48-3.94-6.11-.84-12.3-1.55-18.34-2.85a28.9,28.9,0,0,1-14.47-7.39c-8.27-8-11.48-19.81-12.8-31.08-.18-1.51-.33-3-.45-4.54,0-.1-.16-.1-.16,0,.75,11.56,2.55,23.6,9.81,32.89a28.91,28.91,0,0,0,11.84,9.19c5.72,2.29,12.06,2.83,18.1,3.65C165.21,419.62,179.13,421,192,422s26,1.63,39,1.82,26,0,39-.63c1.58-.08,3.17-.17,4.75-.31A.07.07,0,0,0,274.8,422.71Z" style="fill:#37474f"></path><path d="M234.45,373.56c-4-.59-8-1.17-12.09-1.59s-8.19-.79-12.28-1.14c-8.11-.69-16.23-1.3-24.35-1.68-4.62-.22-9.23-.24-13.85-.18a.11.11,0,0,0,0,.22c8.13.74,16.25,1.25,24.39,1.79s16.23,1.25,24.33,2c4.59.43,9.19.77,13.79,1.15C234.73,374.19,234.79,373.61,234.45,373.56Z" style="fill:#37474f"></path><path d="M180.84,363.45a63.7,63.7,0,0,0-9.32,5,75,75,0,0,0-8.63,6c-.08.06,0,.16.1.12,3.17-1.46,6.21-3.29,9.22-5a87.82,87.82,0,0,0,8.83-5.68C181.24,363.73,181.11,363.34,180.84,363.45Z" style="fill:#37474f"></path><path d="M151.73,299.7c5.12,22.57,15.79,49.64,20.36,54,5.77,5.57,41.65,12.95,43.56,13.16,4.73.49,11.42-29.73,8.64-29.77-7.75-.11-32.53-4.35-34.2-6.07s-13.46-16.67-25.53-33.47C156.23,286,148.54,285.69,151.73,299.7Z" style="fill:#ad6359"></path><path d="M213,366.44a92.18,92.18,0,0,0,12,5.14c3.28,1,12.81,3.47,14.22,0,1-2.39-4.46-4.53-8.26-6.12-2-.84-4.47-2.95-3.88-4.24,1-2.25,6.2,0,9.59,2,6.56,3.83,15.29,10.72,19.31,7.4,1.52-1.26-.23-3.56-2.8-5.81,4.17,2.63,8.62,4.79,10.36,3.46,1-.75,1.05-1.8.5-3a2.92,2.92,0,0,0,3.23-.49c1.36-1.42.7-3.52-.78-5.68a1.62,1.62,0,0,0,1.24-.81c2.88-4.37-11.49-17-16.47-18.19a126,126,0,0,0-30.08-2.91C215.39,341.76,213,366.43,213,366.44Z" style="fill:#ad6359"></path><path d="M234.54,353a24.89,24.89,0,0,1,9.77,3.79c3.71,2.46,6.16,5.33,9.27,8.23.08.08,0,.21-.11.13-1.49-1.38-7.63-6.56-9.21-7.73a23.69,23.69,0,0,0-9.73-4.36S234.5,353,234.54,353Z" style="fill:#263238"></path><path d="M237.29,346.79a59.07,59.07,0,0,1,11.36,4c3.91,2,7,5.26,10,8.39q2.72,2.82,5.28,5.77c.08.08,0,.21-.11.13q-4.57-4.86-9.43-9.44A31.45,31.45,0,0,0,244,349.05c-2.2-.84-4.46-1.52-6.72-2.19A0,0,0,0,1,237.29,346.79Z" style="fill:#263238"></path><path d="M241.41,341.36c3.74.78,7,1.45,10.31,3.46,4.38,2.66,8.61,7.15,10.09,8.73,1.64,1.76,3.21,3.57,4.76,5.4.07.08-.06.19-.13.11a125.45,125.45,0,0,0-11.38-11.33,24.7,24.7,0,0,0-6.38-4.16,43.76,43.76,0,0,0-7.27-2.18S241.4,341.36,241.41,341.36Z" style="fill:#263238"></path><path d="M220.83,333.64,209,370.94s-31.88-9.18-37.69-15.48-16.5-38.79-19.63-54.54,4.83-15.33,12.12-5.39,25.43,34,26.45,34.55S220.83,333.64,220.83,333.64Z" style="fill:#478CBF"></path><path d="M205.94,354.35c1.44-4.4,2.91-8.79,4.18-13.24.73-2.53,1.47-5.05,2.17-7.59,0-.09-.14-.15-.17-.06-1.62,4.36-3.23,8.73-4.65,13.16s-2.86,8.81-4.21,13.23c-.77,2.52-1.46,5-2.08,7.61,0,.05.07.08.09,0C203,363.19,204.49,358.78,205.94,354.35Z" style="fill:#263238"></path><path d="M192.88,365.77l-1.41-.5c-2.65-.95-5.36-2-7.91-3l-1-.4c-.51-.21-1-.43-1.52-.65l-.74-.33-.27-.11-.76-.36c-1-.47-2-.94-2.87-1.41l-.62-.33a22.06,22.06,0,0,1-3.93-2.6l-.32-.3a4,4,0,0,1-.29-.29c-5.82-6.3-16.5-38.79-19.63-54.54,0-.18-.07-.36-.11-.54s0-.08,0-.12c-.21-1.19-.4-2.67-.55-4.28h0c-.42-7.84,3.29-9.11,7.86-5.65C170.23,314.85,187.62,355.37,192.88,365.77Z" style="opacity:0.1"></path><path d="M180.42,369.9l-72.28,4.2c.09-1.48,10.84-44.5,19-60.28,10.43-20.23,15.61-21.76,18.7-22.8,4-1.32,10.94-.46,12.58.36,1.86.92,7.62,11.52,9.59,19.24C172,326.13,181.4,369,180.42,369.9Z" style="fill:#478CBF"></path><path d="M145.91,334.91a10.85,10.85,0,0,0-2.73-.63,9.05,9.05,0,0,0,2.47,1.31,10.19,10.19,0,0,0,2.75.63A9.9,9.9,0,0,0,145.91,334.91ZM165.8,313a10.6,10.6,0,0,0-2.75-.64,9.16,9.16,0,0,0,2.49,1.31,9.6,9.6,0,0,0,2.75.64A10.25,10.25,0,0,0,165.8,313Zm-7.2,56.44a10.17,10.17,0,0,0-2.76-.62,9.6,9.6,0,0,0,2.49,1.31,10,10,0,0,0,2.75.63A10.25,10.25,0,0,0,158.6,369.41Zm-34-50a2.53,2.53,0,0,0-.19.45,8.75,8.75,0,0,0,1.16.16A8.27,8.27,0,0,0,124.59,319.37Zm51.52,26.57a12.49,12.49,0,0,0-1.3-.57,9.6,9.6,0,0,0-2.74-.63,9.75,9.75,0,0,0,2.49,1.31,10.67,10.67,0,0,0,1.67.49Zm-43.65,23.47a10.19,10.19,0,0,0-2.74-.62,9.24,9.24,0,0,0,2.48,1.31,10,10,0,0,0,2.74.63A9.57,9.57,0,0,0,132.46,369.41Zm47.23.54.55,0a5.82,5.82,0,0,0,.17-1.12A7.43,7.43,0,0,0,179.69,370Zm-33.91-11.63a9.53,9.53,0,0,0-.62,2.73,9.87,9.87,0,0,0,1.3-2.49,9.54,9.54,0,0,0,.63-2.73A10.24,10.24,0,0,0,145.78,358.32ZM158,326.52a10.41,10.41,0,0,0-.62,2.74,9.59,9.59,0,0,0,1.31-2.49,9.36,9.36,0,0,0,.63-2.73A10.21,10.21,0,0,0,158,326.52Zm2.27-26.87a10.18,10.18,0,0,0-.62,2.75,9.9,9.9,0,0,0,1.31-2.49,9.68,9.68,0,0,0,.62-2.73A10,10,0,0,0,160.31,299.65Zm7.12,58.41a10,10,0,0,0-2.39,1.49,11.21,11.21,0,0,0,5.08-2.32A9.56,9.56,0,0,0,167.43,358.06Zm-34.53-6.49a9.76,9.76,0,0,0-2.39,1.49,10.07,10.07,0,0,0,2.68-.83,9.46,9.46,0,0,0,2.39-1.49A9.3,9.3,0,0,0,132.9,351.57Zm5.86-30.77a10.75,10.75,0,0,0-2.39,1.5,9.82,9.82,0,0,0,2.69-.84,10.1,10.1,0,0,0,2.39-1.48A9.88,9.88,0,0,0,138.76,320.8Zm34,10a10.37,10.37,0,0,0-2.26,1.43,9.69,9.69,0,0,0,2.42-.72C172.87,331.26,172.82,331,172.77,330.79Zm-56,30.57a9.41,9.41,0,0,0-1.49-2.38,9.62,9.62,0,0,0,.83,2.68,10.21,10.21,0,0,0,1.49,2.38A10.07,10.07,0,0,0,116.74,361.36ZM129,336.67a10.27,10.27,0,0,0-1.49-2.39,11.08,11.08,0,0,0,2.31,5.07A9.7,9.7,0,0,0,129,336.67Zm29.78,9.17a10.51,10.51,0,0,0-1.49-2.38,9.7,9.7,0,0,0,.84,2.69,9.27,9.27,0,0,0,1.48,2.38A9.56,9.56,0,0,0,158.79,345.84Zm-10.6-37.43A9.64,9.64,0,0,0,146.7,306a9.51,9.51,0,0,0,.83,2.68,10.07,10.07,0,0,0,1.49,2.39A9.39,9.39,0,0,0,148.19,308.41Z" style="fill:#fff"></path><path d="M157.74,304.78c-4.22.29-10.16-7.07-12.08-12.55-.13-.38,1-3.93,2.17-8.3.7-2.66,1.41-5.64,1.87-8.4.09-.57,16.63,7.08,16.63,7.08a44.77,44.77,0,0,0-3.43,10.33,6.51,6.51,0,0,0-.07,1.15v.19C162.82,296.49,161.82,304.5,157.74,304.78Z" style="fill:#ad6359"></path><path d="M150.75,275.78c0,4.8,1.07,16.57,10.28,18.31a10.81,10.81,0,0,0,1.79.19.62.62,0,0,0,0-.19,7.58,7.58,0,0,1,.06-1.15,44.53,44.53,0,0,1,3.44-10.34S154.4,277.09,150.75,275.78Z" style="fill:#263238"></path><path d="M152.58,253.51c-3.49,5.5-5.11,23.71-1.91,28.76,4.64,7.31,14.62,10.65,21.44,4.53,6.61-5.94,8.31-29.71,4.51-34.54C171,245.14,157.74,245.39,152.58,253.51Z" style="fill:#ad6359"></path><path d="M166.63,268.8c0-.05-.1.05-.1.1,0,1.23-.27,2.64-1.41,3,0,0,0,.08,0,.07C166.5,271.84,166.8,270,166.63,268.8Z" style="fill:#263238"></path><path d="M165.6,267.45c-2-.26-2.34,3.7-.52,3.94S167.26,267.67,165.6,267.45Z" style="fill:#263238"></path><path d="M173.49,269.49c0-.05.09.06.09.11-.16,1.23-.13,2.65.94,3.17,0,0,0,.07,0,.06C173.16,272.51,173.15,270.62,173.49,269.49Z" style="fill:#263238"></path><path d="M174.71,268.31c2,0,1.76,4-.08,4S173,268.28,174.71,268.31Z" style="fill:#263238"></path><path d="M164.42,264.83c.55-.09,1.05-.25,1.59-.39a2.73,2.73,0,0,0,1.54-.7.86.86,0,0,0,0-1,2.1,2.1,0,0,0-2.07-.42,3,3,0,0,0-1.89,1.14A.9.9,0,0,0,164.42,264.83Z" style="fill:#263238"></path><path d="M176.75,266.51a14,14,0,0,1-1.57-.44,2.59,2.59,0,0,1-1.52-.75.83.83,0,0,1,.07-1,2.09,2.09,0,0,1,2.08-.35,3.1,3.1,0,0,1,1.85,1.2A.9.9,0,0,1,176.75,266.51Z" style="fill:#263238"></path><path d="M163.13,279.53c.14.39.24.87.62,1.1a3.22,3.22,0,0,0,1.33.29,0,0,0,0,1,0,.08,1.65,1.65,0,0,1-1.7-.07,1.31,1.31,0,0,1-.4-1.4C163,279.46,163.11,279.47,163.13,279.53Z" style="fill:#263238"></path><path d="M165.14,276.45a4.17,4.17,0,0,0,2.61,2.12,5.26,5.26,0,0,0,1.49.21,1.4,1.4,0,0,0,.29,0l.27,0a.32.32,0,0,0,.28-.25h0v-.13h0v-.1c.11-.94.16-2.39.16-2.39.33.21,2,1.17,2,.67a63,63,0,0,0-.42-12.79.11.11,0,0,0-.22,0c-.3,3.94.1,7.91-.14,11.87a7.24,7.24,0,0,0-1.91-.79c-.14,0,0,2.8-.12,3.22l0,0a5.83,5.83,0,0,1-4.19-1.75C165.18,276.27,165.07,276.34,165.14,276.45Z" style="fill:#263238"></path><path d="M149.17,266.5c1.15-.14,4-3.92,5.2-5.42s2.12-9.69,2.28-11.54a12.35,12.35,0,0,0-4.94,4.76C150.34,256.7,149.45,261.5,149.17,266.5Z" style="fill:#263238;opacity:0.2"></path><path d="M170.58,256.74a5.9,5.9,0,0,1-5.49,1.66,6,6,0,0,1-4.39-3.86,0,0,0,0,0-.09,0,6,6,0,0,0,4.37,4.3,6.07,6.07,0,0,0,5.7-2C170.74,256.77,170.64,256.67,170.58,256.74Z" style="fill:#263238"></path><path d="M165.4,241.87a9.27,9.27,0,0,0-8,3.79,6.68,6.68,0,0,0-.91,4.25c0,.06.13.06.13,0a7.26,7.26,0,0,1,3.82-6.33,9.35,9.35,0,0,1,8.31-.47,5.9,5.9,0,0,1,3,2.74c.06.12.32.06.27-.07C171.2,243.6,168.48,242,165.4,241.87Z" style="fill:#263238"></path><path d="M184.11,251.66a5.91,5.91,0,0,0-2.76-3.4c-1.94-1.33-4.21-1.31-6.46-1.26a.05.05,0,0,0,0,.1,10.37,10.37,0,0,1,5.57,1,7.1,7.1,0,0,1,3.09,3.52,5.33,5.33,0,0,1-3,7.19A7.23,7.23,0,0,1,175,259c-.07,0-.12.07-.05.1a7.14,7.14,0,0,0,8.87-2.78A5.82,5.82,0,0,0,184.11,251.66Z" style="fill:#263238"></path><path d="M150.38,257.61s-2.83-6.3.11-9.65c1.66-1.89,6.72-1.29,6.72-1.29a9.17,9.17,0,0,1,6.11-3.49c4.31-.69,12.19,3.79,12.19,3.79s3.55-.19,5.8,1.7c3.09,2.58,2.91,8.36-2.57,10.59-3.84,1.56-8.68-2.07-8.68-2.07-.49,0-5.68,2.7-9.15-2,0,0-3.24,2.52-5.86.43A4.45,4.45,0,0,1,150.38,257.61Z" style="fill:#263238"></path><path d="M152.38,268.67s-2.5-6.65-5.42-5.89-2,9.68.68,11.56a3.15,3.15,0,0,0,4.51-.6Z" style="fill:#ad6359"></path><path d="M147.28,265.33c-.05,0-.08.05,0,.08,1.89,1.39,2.5,3.62,2.76,5.84a1.73,1.73,0,0,0-2.4-1.1c-.07,0,0,.12,0,.13a1.92,1.92,0,0,1,1.9,1.18,9,9,0,0,1,.57,1.92c0,.22.41.2.4,0v-.06C151.22,270.62,150.09,266.33,147.28,265.33Z" style="fill:#263238"></path><path d="M166.61,242.54a27.23,27.23,0,0,0-7.67-1.92c-2.95-.25-9-.53-13.49,3.7-3.69,3.51-3.16,9.82-3.17,11.1s.91,9,3.78,10.7,2.57-11.37,6.79-15.91S166.61,242.54,166.61,242.54Z" style="fill:#478CBF"></path><path d="M166.62,242.55s-9.56,3.13-13.77,7.66-3.92,17.64-6.79,15.91c-1.27-.77-1.92-2-2.52-4,.42-3.85,1.71-9.85,4.72-14.1,2.82-4,7.88-6.16,13.35-7A30.24,30.24,0,0,1,166.62,242.55Z" style="opacity:0.1"></path><path d="M147.16,273.86c.1-3.5,3.24-13,6.73-18.52s14.29-9.12,15.83-9.1c3.72,0,5,1.12,5.6.77s-3.37-3-4.44-3.57-3.95-1.93-5.56-1.82-11.53,1.53-15,5.93-8,16.53-7,19.53c.26.73,1.25,1.15,1.61,2.18.46,1.34.82,2.9,1.27,3.83C146.63,273.85,147.15,274.16,147.16,273.86Z" style="fill:#478CBF"></path><path d="M154.64,252.9a18,18,0,0,1-2.49-1.66,12.75,12.75,0,0,1-2.16-2.12c-.05-.06-.14,0-.1.06a9.76,9.76,0,0,0,2,2.4,8.38,8.38,0,0,0,2.69,1.5C154.67,253.12,154.73,253,154.64,252.9Z" style="fill:#263238"></path><path d="M147,270.37c-.1-.24-.28-.46-.41-.7a4.26,4.26,0,0,1-.36-.85,8,8,0,0,0-.47-1.67,6.3,6.3,0,0,0-.87-1.13,2.31,2.31,0,0,1-.75-1.39.06.06,0,0,0-.12,0c0,1.06.79,1.78,1.29,2.64a11.37,11.37,0,0,1,.56,1.8,2.73,2.73,0,0,0,1,1.41A.1.1,0,0,0,147,270.37Z" style="fill:#263238"></path><path d="M148,266.55a13.94,13.94,0,0,1-1-1.14,12,12,0,0,1-.81-1.28c-.23-.43-.44-.88-.67-1.32s-.61-1-.86-1.53c0-.07-.13,0-.09.06.25.55.41,1.14.65,1.7a12.26,12.26,0,0,0,.73,1.39,7.15,7.15,0,0,0,.88,1.22,3.71,3.71,0,0,0,1.17,1S148,266.58,148,266.55Z" style="fill:#263238"></path><path d="M149.13,263.08a10,10,0,0,1-2-2.06c-.54-.76-1-1.56-1.53-2.36,0-.06-.13,0-.1,0a11.36,11.36,0,0,0,1.32,2.6,5.58,5.58,0,0,0,.94,1.06,6.7,6.7,0,0,0,1.29.82C149.12,263.21,149.19,263.13,149.13,263.08Z" style="fill:#263238"></path><path d="M150.37,259.76a3.43,3.43,0,0,1-1-.9c-.32-.38-.63-.76-.93-1.16l-.87-1.13a3.55,3.55,0,0,1-.68-1.25c0-.06-.12,0-.11,0a3.4,3.4,0,0,0,.46,1.34,8.35,8.35,0,0,0,.85,1.33,11.4,11.4,0,0,0,1,1.17,2.35,2.35,0,0,0,1.16.73C150.4,259.92,150.46,259.8,150.37,259.76Z" style="fill:#263238"></path><path d="M151.19,255.57c-.34-.3-.67-.61-1-.94s-.6-.67-.89-1-.62-.73-.9-1.11c0-.06-.13,0-.1.06a8.4,8.4,0,0,0,.7,1.24,9.4,9.4,0,0,0,.89,1.09,10.16,10.16,0,0,0,1,1,3.51,3.51,0,0,0,1.16.75c.07,0,.14-.07.09-.12A6,6,0,0,0,151.19,255.57Z" style="fill:#263238"></path><path d="M157.23,250.8a15.75,15.75,0,0,0-1.12-1.19,13.18,13.18,0,0,0-1.29-1.08,14.5,14.5,0,0,0-2.79-1.71c-.05,0-.12.05-.06.09,1.71,1.35,3.48,2.62,5.18,4A.06.06,0,0,0,157.23,250.8Z" style="fill:#263238"></path><path d="M159.21,247.72a7.38,7.38,0,0,0-1.23-1.07,15.43,15.43,0,0,0-3.07-1.53.06.06,0,0,0,0,.1c.93.56,1.87,1.11,2.77,1.72.44.31.88.62,1.29,1s.73.78,1.12,1.15c0,0,.09,0,.07,0A4.16,4.16,0,0,0,159.21,247.72Z" style="fill:#263238"></path><path d="M162.05,246.23a7.79,7.79,0,0,0-1.14-1.08,9,9,0,0,0-2.61-1.38c-.07,0-.1.08-.05.11a17,17,0,0,1,2.49,1.64c.39.3.76.63,1.14,1s.7.73,1.1,1c0,0,.07,0,.05-.05A7.52,7.52,0,0,0,162.05,246.23Z" style="fill:#263238"></path><path d="M164.08,244.4c-.38-.28-.77-.55-1.17-.8a4.27,4.27,0,0,0-1.24-.63c-.07,0-.09.07,0,.1q1.1.81,2.19,1.65a12.06,12.06,0,0,1,1.72,1.85s.07,0,.06,0A4.47,4.47,0,0,0,164.08,244.4Z" style="fill:#263238"></path><path d="M166.67,243.72a7.25,7.25,0,0,0-2.39-1.35c-.06,0-.1.08,0,.11a8.61,8.61,0,0,1,2.19,1.5,12.42,12.42,0,0,1,1.76,2s.09,0,.07,0A6,6,0,0,0,166.67,243.72Z" style="fill:#263238"></path><path d="M170.17,245.13a4.39,4.39,0,0,0-.32-.51,6,6,0,0,0-.82-.92,12.37,12.37,0,0,0-2.05-1.44c-.06,0-.12.07,0,.1a10.72,10.72,0,0,1,1.92,1.49,8.48,8.48,0,0,1,.79.9,5.78,5.78,0,0,1,.33.48,3,3,0,0,0,.31.48.06.06,0,0,0,.1,0A1.78,1.78,0,0,0,170.17,245.13Z" style="fill:#263238"></path><path d="M172.28,245.23a8.09,8.09,0,0,0-.67-.76c-.25-.23-.49-.45-.76-.66s-.56-.41-.82-.63c-.06-.06-.14,0-.07.09a5.66,5.66,0,0,1,.77.7l.69.7.68.7a7.94,7.94,0,0,0,.69.73s.09,0,.07-.06A4.6,4.6,0,0,0,172.28,245.23Z" style="fill:#263238"></path><path d="M135.37,296.77c-14.08,10.83-51.17,54.6-43.41,65s60.89,6.93,76.39,2.46c4.62-1.33-7.22-30.67-12.14-32.13-4.1-1.21-27.11,5-27.52,3.7-.47-1.5,4.63-11.21,12.85-28.94C151,286.4,141.58,292,135.37,296.77Z" style="fill:#ad6359"></path><path d="M178.87,327c10.63.28,13.32,2,22.41-2.56,6-3,10.43-.44,6.38,5.19-6.63,9.2-20.42,11.73-25.46,11.23Z" style="fill:#ad6359"></path><path d="M149.62,332.43s12.75-4.55,24.1-5.38c7.86-.58,25.08.08,38.47,19.4,3.18,4.58,4.45,13.36-3.45,7.76-5.62-4-8-8.2-11.66-9.92,0,0,.29,11.37-4.42,14.37a104,104,0,0,1-12.88,7,21.68,21.68,0,0,1-1.52-2.3s-4.67,2.39-12.38.35Z" style="fill:#ad6359"></path><path d="M181.31,327.7c3.29,2.48,10.2,7.85,14.32,14.21,4.57,7.07,11.48,21.91,6.23,25.23-3.85,2.44-7-3-7-3s1.56,6.74-2.4,8.18c-3.61,1.31-5.78-3-5.78-3s.24,4.25-3.47,4.85c-4.48.71-4.26-8.31-9.41-11.5C172.66,361.92,181.31,327.7,181.31,327.7Z" style="fill:#ad6359"></path><path d="M187.36,345.5c2.72,2.84,7.24,10.88,7.6,18.49,0,.17-.12.27-.16.11a83,83,0,0,0-7.51-18.56S187.33,345.47,187.36,345.5Z" style="fill:#263238"></path><path d="M180.36,350.32c2.09,2.7,6.39,11.19,6.49,18.91,0,.18-.14.27-.17.11a88.86,88.86,0,0,0-6.39-19S180.33,350.29,180.36,350.32Z" style="fill:#263238"></path><path d="M197.09,344.23c3.22,1.55,5.15,3.58,7.68,6a47.71,47.71,0,0,0,3.9,3.48c1.26,1,3.11,2.44,4.77,1.51a2.81,2.81,0,0,0,1.08-2.66,13.91,13.91,0,0,0-1.22-4.16c0-.05.06-.09.08,0a19.17,19.17,0,0,1,1.47,3.76,4.6,4.6,0,0,1-.13,2.7c-.81,1.78-3.05,1.66-4.52.89a14.53,14.53,0,0,1-2.46-1.73c-.74-.61-1.45-1.25-2.15-1.91-1.43-1.35-2.78-2.79-4.19-4.16a46,46,0,0,0-4.38-3.62C197,344.29,197,344.2,197.09,344.23Z" style="fill:#263238"></path><path d="M202.21,357.31a107.83,107.83,0,0,0-5.2-13c0-.06,0-.11.08-.06,2.22,2.94,5.37,10.29,6,12.58s1.31,5.14.92,7.49c-.58,3.53-3,3.82-3.94,3.85a4.66,4.66,0,0,1-2.93-1,9.33,9.33,0,0,1-2.3-3c0-.06,0-.11.08-.06,1,1.6,2.8,3.31,4.77,3.38a3.23,3.23,0,0,0,2.38-.82,4.18,4.18,0,0,0,1-2.76A19.64,19.64,0,0,0,202.21,357.31Z" style="fill:#263238"></path><path d="M149.62,332.43l10.67,37.16s-66.44,3.79-70.12-8.28,28.42-51.59,41.73-62.44c15.43-12.58,16.26-7.3,11.24,5.28-5.26,13.18-14.32,32-14.32,32Z" style="fill:#478CBF"></path><path d="M107.83,342.09a75.25,75.25,0,0,1,10.25-3.94,73.73,73.73,0,0,1,10.6-2.35c2-.32,4.09-.54,6.15-.77.06,0,.07.09,0,.1a95.28,95.28,0,0,0-10.69,2.24c-3.5.92-7,1.89-10.44,2.93-2,.59-3.89,1.27-5.83,1.93C107.79,342.26,107.75,342.13,107.83,342.09Z" style="fill:#263238"></path><path d="M149.46,332.3c-.33,0-18.81,2.92-19.43,3.09.12-.25,4.8-9.05,5.5-10.33l.2-.39c.42-.56.84-1.11,1.24-1.68.51-.73,1-1.47,1.52-2.21,0,0,0,0,0,0l-1.61,2.13c-.25.33-.49.67-.72,1,.47-.91.92-1.83,1.38-2.75.73-1.47,1.41-3,2.08-4.45,0-.05-.05-.08-.07,0-1.38,2.57-2.84,5.09-4.23,7.64s-6.64,12-6.62,12,20.43-3.61,20.82-3.71A.13.13,0,0,0,149.46,332.3Z" style="fill:#263238"></path><path d="M146.92,355c-1.16-4.14-2.3-8.3-3.62-12.4-.75-2.33-1.48-4.66-2.26-7a.09.09,0,0,0-.16.05c1,4.2,2,8.42,3.23,12.57s2.35,8.29,3.59,12.41c.71,2.35,1.49,4.66,2.34,7,0,.05.09,0,.08,0C149.26,363.31,148.1,359.14,146.92,355Z" style="fill:#263238"></path><path d="M161,370.27c-.47-1.17-1-2.83-1.54-4-.13-.3-.35-.28-.26,0,.33,1.05.56,2.2.88,3.26-.93,0-1.86,0-2.79.08l-3.22.14c-2.11.09-4.21.15-6.32.19q-6.39.12-12.79,0a245.89,245.89,0,0,1-25.59-1.8c-2.37-.3-4.74-.65-7.1-1.08s-5-.91-6.91-1.48c-.06,0-.09.08,0,.11a38.18,38.18,0,0,0,5.93,1.78q3.18.69,6.39,1.19c4.27.66,8.57,1.09,12.87,1.4q12.81.93,25.66.77,3.6,0,7.19-.16c1.21,0,2.42-.08,3.63-.14S161.11,370.47,161,370.27Z" style="fill:#263238"></path><rect x="170.34" y="374.66" width="78.46" height="3.51" style="fill:#c7c7c7"></rect><polygon points="248.79 374.66 248.79 378.17 195.46 378.17 198.15 374.66 248.79 374.66" style="fill:#a6a6a6"></polygon><polygon points="201.54 378.17 278 378.17 284.37 326.24 207.9 326.24 201.54 378.17" style="fill:#c7c7c7"></polygon><path d="M238.3,352.21a4.55,4.55,0,0,0,4.57,4.65,4.76,4.76,0,0,0,4.74-4.65,4.57,4.57,0,0,0-4.58-4.66A4.75,4.75,0,0,0,238.3,352.21Z" style="fill:#fff"></path></g><g id="freepik--Backpack--inject-135"><path d="M89.54,352.57c-.57-.56,2.63-8.74,4.95-10.06s16.18-.31,17.57,2.48-1.47,11.07-2.48,11.14-3.64-.38-4.1-1,1.49-5.82.79-6.83c-.91-1.34-8.76-1.86-9.57-1.1s-2,5.39-2.21,5.68S90.45,353.48,89.54,352.57Z" style="fill:#263238"></path><path d="M123.82,431.05c-3.4,5.57-14.24,12.38-20.43,13s-47,3.09-52.94-5.89c-5.36-8.17,10.15-62.77,23-79.51a18.6,18.6,0,0,1,3.4-3.56l.26-.19c11.61-8.21,33.07-1.82,35.75-.86,4.18,1.52,9.91,5.65,12.38,14S127.23,425.48,123.82,431.05Z" style="fill:#37474f"></path><path d="M101.07,425.78c-.93,4-8,13.17-15.79,15s-34.83-2.63-40.54-8.42a6.16,6.16,0,0,1-1.19-3.65c-1.13-12.39,9.22-49,18.7-59.59a10.05,10.05,0,0,1,3.06-2.48,24,24,0,0,1,4.11-1.49,46.33,46.33,0,0,1,23.85.67c4.67,1.48,8.4,3.78,10,6.86C107.21,380.5,102,421.76,101.07,425.78Z" style="fill:#478CBF"></path><path d="M101.07,425.78c-.93,4-8,13.17-15.79,15s-34.83-2.63-40.54-8.42a6.16,6.16,0,0,1-1.19-3.65,37.49,37.49,0,0,0,15.56,6.11,68.72,68.72,0,0,0,12.24.85c4.05-.07,8.25-.62,11.74-2.91,6.61-4.32,9.44-13.27,10.85-20.82,1.53-8.24,1.61-16.81,1.5-25.17a99.41,99.41,0,0,0-2.17-21c4.67,1.48,8.4,3.78,10,6.86C107.21,380.5,102,421.76,101.07,425.78Z" style="opacity:0.1"></path><path d="M97.16,409.07l-1.85-.23c1.09-8.55,3.07-31.76-.85-36.57s-19.95-6.52-26.8-4.9a31.9,31.9,0,0,0-5.4,1.77,10,10,0,0,1,3.05-2.48,23.76,23.76,0,0,1,4.12-1.49c8.25-1,22.52,1.06,26.48,5.93C101.13,377.51,97.31,407.79,97.16,409.07Z" style="fill:#263238"></path><path d="M119.56,403.3l-1.85-.07c1.24-34.59-.3-36-6.78-41.79l-.22-.21c-6.32-5.66-22.16-6.12-28.42-5.45a22.52,22.52,0,0,0-8.87,2.87,18.6,18.6,0,0,1,3.4-3.56,25.07,25.07,0,0,1,5.26-1.16c4.4-.47,22.35-.83,29.86,5.93l.22.19C119,366.19,120.85,367.84,119.56,403.3Z" style="fill:#263238"></path><path d="M128.85,430.37c-1.33,4.43-12.48,12.66-17.79,14.22-1.08.33-10,1.5-10.12-2.06,0-.24,0-.48,0-.72-.1-9.29,5.12-29.06,6.24-31.69,1.32-3.11,11.64-8.43,17.63-9.26A6.45,6.45,0,0,1,128,401C132.21,402.81,129.69,427.56,128.85,430.37Z" style="fill:#455a64"></path><path d="M128.85,430.37c-1.33,4.43-12.48,12.66-17.79,14.22-1.08.33-10,1.5-10.12-2.06,0-.24,0-.48,0-.72,6.48-.09,15.67-2.39,20-9.71,4.14-6.9,4.28-22.49,3.83-31.24A6.45,6.45,0,0,1,128,401C132.21,402.81,129.69,427.56,128.85,430.37Z" style="fill:#37474f"></path></g></svg>