<svg viewBox="0 0 16 16" xmlns="http://www.w3.org/2000/svg">
 <path d="m7.31 15.4c-0.965-0.0453-2.13-0.213-2.88-0.414-0.751-0.201-1.39-0.482-1.89-0.829-0.218-0.152-0.853-0.773-1-0.973-0.262-0.36-0.378-0.658-0.455-1.16l-0.05-0.329-3.03e-4 -2.33-2.87e-4 -2.33-0.195-0.263c-0.107-0.145-0.291-0.408-0.409-0.586-0.214-0.321-0.215-0.323-0.241-0.502-0.021-0.142-0.0215-0.214-0.00214-0.346 0.0215-0.148 0.0377-0.188 0.142-0.354 0.328-0.522 0.861-1.17 1.32-1.63l0.172-0.168 0.172-0.0249c0.133-0.0192 0.21-0.0195 0.337-0.00146 0.183 0.026 0.313 0.0845 0.766 0.342 0.148 0.0837 0.271 0.152 0.277 0.152 0.00481 0 0.145-0.102 0.311-0.227 0.292-0.219 0.302-0.229 0.301-0.298-8.54e-4 -0.0396-0.0141-0.283-0.0295-0.541-0.0225-0.376-0.0231-0.506-0.00316-0.658l0.0249-0.189 0.398-0.388 0.317-0.132c0.52-0.217 1.2-0.419 1.63-0.491 0.162-0.0262 0.224-0.0275 0.382-0.00743l0.189 0.024 0.181 0.183c0.186 0.189 0.309 0.384 0.559 0.885l0.0877 0.177h0.555l0.0877-0.177c0.25-0.502 0.373-0.698 0.559-0.885l0.181-0.183 0.189-0.024c0.158-0.02 0.221-0.0188 0.384 0.00726 0.513 0.0821 1.47 0.388 1.9 0.605 0.053 0.027 0.176 0.129 0.274 0.227l0.178 0.179 0.0253 0.189c0.0203 0.152 0.0198 0.279-0.0028 0.658-0.0155 0.258-0.0287 0.501-0.0295 0.541-0.0015 0.0694 9e-3 0.0798 0.305 0.301l0.306 0.23 0.0718-0.0402c0.0396-0.0221 0.168-0.0949 0.287-0.162 0.388-0.22 0.506-0.272 0.684-0.297 0.128-0.0183 0.204-0.0182 0.337 7.32e-4l0.172 0.0245 0.172 0.168c0.466 0.455 0.973 1.08 1.32 1.63 0.105 0.166 0.12 0.204 0.143 0.354 0.0194 0.134 0.0191 0.205-2e-3 0.348-0.0263 0.179-0.0274 0.18-0.241 0.502-0.118 0.177-0.302 0.441-0.409 0.586l-0.195 0.263-8e-5 2.32-1.59e-4 2.32-0.0494 0.337c-0.103 0.7-0.271 1.02-0.837 1.6-0.347 0.35-0.575 0.539-0.869 0.719-0.743 0.455-1.67 0.746-3 0.933-1.06 0.15-1.95 0.195-2.93 0.149z" fill="#084877" stroke-width=".0798"/>
 <path d="m9.12 14.6c1.73-0.141 3.05-0.526 3.96-1.16 0.253-0.175 0.611-0.53 0.762-0.756 0.333-0.499 0.409-0.885 0.396-2.03-0.0032-0.295-0.0038-1.31-0.0011-2.26l0.0047-1.72 0.176-0.233c0.0973-0.128 0.291-0.404 0.431-0.612l0.255-0.38-0.0466-0.0761c-0.274-0.448-0.599-0.877-1.03-1.36l-0.203-0.227-0.163 0.0806c-0.197 0.0981-0.703 0.389-0.933 0.538l-0.17 0.109-0.126-0.112c-0.205-0.183-0.661-0.519-0.933-0.687-0.14-0.0861-0.263-0.164-0.272-0.172-0.0092-0.00805-0.0026-0.136 0.0144-0.286 0.0362-0.317 0.071-0.798 0.0773-1.07l0.0045-0.192-0.152-0.0745c-0.201-0.0989-0.525-0.225-0.829-0.324-0.256-0.0837-0.837-0.238-0.893-0.239-0.0404-1.36e-4 -0.271 0.409-0.54 0.957l-0.193 0.394-0.118-0.0214c-0.153-0.0278-1.08-0.0278-1.24 0l-0.118 0.0214-0.193-0.394c-0.249-0.507-0.5-0.957-0.534-0.957-0.0605 0-0.671 0.165-0.933 0.252-0.27 0.0893-0.657 0.245-0.853 0.341l-0.0909 0.0447 0.00404 0.192c0.00575 0.268 0.0403 0.749 0.0769 1.07 0.017 0.149 0.0234 0.278 0.0144 0.287-0.00909 0.00867-0.128 0.0837-0.266 0.167-0.311 0.189-0.772 0.53-0.981 0.727l-0.0837 0.079-0.171-0.11c-0.234-0.151-0.739-0.441-0.941-0.539l-0.163-0.0805-0.215 0.242c-0.385 0.432-0.679 0.813-0.941 1.23l-0.119 0.187 0.255 0.38c0.14 0.209 0.335 0.485 0.431 0.613l0.176 0.233 2.47e-4 1.16 2.63e-4 1.16s-0.0404 1.75 0.023 2.62c0.0419 0.566 0.273 1.04 0.723 1.48 0.56 0.552 1.34 0.933 2.47 1.21 0.689 0.169 1.37 0.261 2.38 0.322 0.231 0.014 1.53-0.0063 1.8-0.0279z" fill="#478cbf" stroke-width=".0798"/>
 <g fill="#084877">
  <path d="m13 7.21c-0.0272-0.0502-0.0901-0.12-0.138-0.155l-0.0901-0.0628-3.56-0.0209 2.37-2.37-0.617-0.617-2.82 2.82-2.82-2.82-0.31 0.308-0.308 0.31 2.38 2.38h-3.53l-0.0925 0.0482c-0.128 0.0691-0.211 0.193-0.224 0.337-0.0188 0.222-0.0586 0.171 1.22 1.45 0.795 0.798 1.2 1.19 1.26 1.22 0.103 0.0483 0.258 0.0503 0.362 0.0086 0.0524-0.0232 0.389-0.344 1.07-1.02l0.989-0.989 0.989 0.989c0.676 0.678 1.01 0.997 1.07 1.02 0.1 0.0397 0.247 0.0397 0.348 0 0.107-0.0462 2.4-2.33 2.46-2.45 0.0543-0.117 0.0524-0.274-0.0084-0.389zm-2.62 1.8c-0.0127 0-0.281-0.259-0.597-0.576l-0.576-0.576h2.34l-0.576 0.576c-0.316 0.316-0.584 0.576-0.597 0.576zm-4.46 0c-0.0127 0-0.281-0.259-0.597-0.576l-0.576-0.576h2.34l-0.576 0.576c-0.316 0.316-0.584 0.576-0.597 0.576z"/>
  <path d="m10.6 11.3-0.31-0.308-0.157 0.136c-0.406 0.352-0.901 0.597-1.44 0.711-0.254 0.0544-0.957 0.0544-1.21 0-0.553-0.117-1.06-0.371-1.48-0.739l-0.126-0.111-0.62 0.62 0.147 0.13c0.634 0.569 1.4 0.909 2.24 1.01 0.294 0.0335 0.885 0.0126 1.16-0.0418 0.739-0.14 1.44-0.492 1.97-0.981l0.132-0.124z"/>
  <path d="m9.28 10-0.301-0.302-0.0877 0.0753c-0.125 0.107-0.349 0.22-0.536 0.266-0.389 0.1-0.806 0.0126-1.14-0.237l-0.134-0.103-0.609 0.609 0.0711 0.0775c0.0814 0.0837 0.356 0.27 0.513 0.349 0.312 0.155 0.723 0.237 1.08 0.215 0.388-0.021 0.711-0.121 1.04-0.321 0.157-0.0941 0.394-0.285 0.394-0.316 0-0.0085-0.136-0.151-0.301-0.316z"/>
 </g>
</svg>
